<svg width="43" height="39" viewBox="0 0 43 39" fill="none" xmlns="http://www.w3.org/2000/svg">
<path fill-rule="evenodd" clip-rule="evenodd" d="M20.2815 0.0570161C20.0481 0.085874 19.6705 0.147955 19.4424 0.19496C19.2143 0.242006 18.8142 0.344949 18.5534 0.423722C18.2925 0.502455 17.9154 0.631588 17.7154 0.710684C17.5153 0.789741 17.1184 0.972467 16.8334 1.11676C16.5484 1.26101 16.121 1.50654 15.8838 1.66239C15.6465 1.8182 15.2796 2.0839 15.0684 2.25285C14.8573 2.42179 14.523 2.7151 14.3257 2.9047C14.1283 3.09429 13.8136 3.43129 13.6262 3.65359C13.4389 3.87588 13.1266 4.2942 12.9323 4.58318C12.7379 4.87217 12.4593 5.34505 12.3131 5.63403C12.167 5.92302 11.9827 6.32315 11.9037 6.52321C11.8246 6.72328 11.6955 7.10041 11.6167 7.36134C11.538 7.62224 11.4352 8.02237 11.3884 8.25052C11.3416 8.47864 11.2781 8.87449 11.2473 9.13013C11.2166 9.38576 11.1914 9.9314 11.1914 10.3426C11.1914 10.7539 11.2166 11.2995 11.2473 11.5552C11.2781 11.8108 11.3416 12.2066 11.3884 12.4348C11.4352 12.6629 11.538 13.063 11.6167 13.3239C11.6955 13.5849 11.8246 13.962 11.9037 14.1621C11.9827 14.3621 12.167 14.7623 12.3131 15.0513C12.4593 15.3402 12.7379 15.8131 12.9323 16.1021C13.1266 16.3911 13.4389 16.8094 13.6262 17.0317C13.8136 17.254 14.1283 17.591 14.3257 17.7806C14.523 17.9702 14.8573 18.2635 15.0684 18.4324C15.2796 18.6014 15.6465 18.8671 15.8838 19.0229C16.121 19.1787 16.5484 19.4243 16.8334 19.5685C17.1184 19.7128 17.5153 19.8955 17.7154 19.9746C17.9154 20.0537 18.2925 20.1828 18.5534 20.2616C18.8142 20.3403 19.2143 20.4431 19.4424 20.49C19.6705 20.5368 20.0663 20.6003 20.3219 20.631C20.5775 20.6618 21.1231 20.687 21.5343 20.687C21.9454 20.687 22.491 20.6618 22.7466 20.631C23.0022 20.6003 23.398 20.5368 23.6261 20.49C23.8542 20.4431 24.2543 20.3403 24.5151 20.2616C24.776 20.1828 25.1531 20.0537 25.3531 19.9746C25.5532 19.8955 25.9501 19.7128 26.2351 19.5685C26.5201 19.4243 26.9475 19.1787 27.1848 19.0229C27.4221 18.8671 27.7889 18.6014 28.0001 18.4324C28.2112 18.2635 28.5455 17.9702 28.7428 17.7806C28.9402 17.591 29.2549 17.254 29.4423 17.0317C29.6296 16.8094 29.9419 16.3911 30.1362 16.1021C30.3306 15.8131 30.6092 15.3402 30.7554 15.0513C30.9015 14.7623 31.0858 14.3621 31.1648 14.1621C31.2439 13.962 31.373 13.5849 31.4518 13.3239C31.5305 13.063 31.6333 12.6629 31.6801 12.4348C31.7269 12.2066 31.7904 11.8108 31.8212 11.5552C31.8519 11.2995 31.8777 10.772 31.8783 10.3828C31.879 9.99368 31.8524 9.44296 31.8192 9.15898C31.786 8.87505 31.7205 8.45681 31.6736 8.22963C31.6267 8.00244 31.5252 7.60741 31.448 7.35177C31.3707 7.09613 31.2259 6.6869 31.1261 6.44238C31.0264 6.19785 30.8356 5.78863 30.7021 5.53299C30.5686 5.27735 30.3257 4.86812 30.1623 4.6236C29.999 4.37908 29.742 4.02441 29.5912 3.83546C29.4404 3.64651 29.1071 3.28195 28.8505 3.02534C28.5939 2.76873 28.2294 2.43537 28.0405 2.28457C27.8516 2.13378 27.497 1.87672 27.2525 1.71336C27.008 1.54995 26.5988 1.30704 26.3432 1.17354C26.0876 1.04 25.6785 0.849154 25.434 0.749404C25.1895 0.649614 24.7803 0.504799 24.5247 0.427521C24.2691 0.350284 23.8741 0.248715 23.647 0.201831C23.4198 0.154947 23.0016 0.0894307 22.7177 0.0562077C22.4166 0.0210043 21.89 -0.00235689 21.4537 0.000189398C21.0424 0.00261443 20.5149 0.0281986 20.2815 0.0570161ZM22.5647 0.767552C22.8092 0.791398 23.2094 0.852792 23.454 0.903919C23.6986 0.955088 24.0345 1.03738 24.2005 1.08685L24.5024 1.17674L23.0492 1.75838C22.2499 2.07828 21.5684 2.34035 21.5348 2.34071C21.5012 2.34108 20.8155 2.08192 20.011 1.76477L18.5483 1.18813L18.839 1.09711C18.999 1.04704 19.3389 0.962201 19.5945 0.908567C19.8501 0.854934 20.2593 0.790832 20.5038 0.766177C20.7482 0.741523 21.0756 0.717232 21.2312 0.71222C21.3868 0.707209 21.6504 0.707855 21.8171 0.713675C21.9838 0.719455 22.3203 0.743705 22.5647 0.767552ZM19.412 2.30211L21.1705 2.99963L21.1699 4.86247L21.1693 6.7253L19.5928 7.98498L18.0163 9.24467L16.1311 8.61145L14.2458 7.97823L13.8917 6.46792L13.5376 4.95761L13.8138 4.58852C13.9658 4.3855 14.2455 4.05089 14.4353 3.84492C14.6252 3.63896 14.9046 3.35704 15.0562 3.21845C15.2079 3.07986 15.4499 2.87333 15.5942 2.75948C15.7384 2.64562 16.0442 2.42967 16.2736 2.2796C16.5031 2.12949 16.8759 1.90881 17.1021 1.78918C17.3283 1.66954 17.5448 1.57905 17.5834 1.58814C17.6219 1.5972 18.4448 1.91851 19.412 2.30211ZM25.9324 1.77277C26.1473 1.88315 26.5193 2.1012 26.7591 2.25733C26.9989 2.4135 27.3262 2.64457 27.4865 2.77087C27.6467 2.89714 27.8869 3.10141 28.0203 3.2248C28.1537 3.34815 28.4237 3.62242 28.6203 3.83429C28.817 4.04612 29.1024 4.3855 29.2544 4.58852L29.5309 4.95761L29.1768 6.46792L28.8227 7.97823L26.9374 8.61145L25.0522 9.24467L23.4757 7.98498L21.8992 6.7253L21.8986 4.86008L21.898 2.99487L23.666 2.28538C24.6384 1.89515 25.4583 1.57501 25.4879 1.574C25.5176 1.57295 25.7177 1.66239 25.9324 1.77277ZM13.2855 7.02843C13.4218 7.61751 13.5332 8.12406 13.5331 8.15409C13.5329 8.18412 13.1663 8.64791 12.7184 9.18473L11.904 10.1608L11.9297 9.67204C11.9438 9.40326 12.0004 8.93948 12.0554 8.6414C12.1105 8.34336 12.2026 7.9358 12.2601 7.73573C12.3176 7.53566 12.4209 7.21738 12.4896 7.02843C12.5583 6.83948 12.6968 6.50684 12.7973 6.28928C12.8978 6.07167 12.993 5.90798 13.0088 5.92552C13.0246 5.94302 13.1491 6.43935 13.2855 7.02843ZM30.5845 7.04864C30.6739 7.29316 30.792 7.66601 30.8471 7.87719C30.9022 8.08837 30.9846 8.47031 31.0302 8.72595C31.0759 8.98159 31.1248 9.409 31.1389 9.67576L31.1645 10.1608L30.3501 9.18473C29.9022 8.64791 29.5357 8.18246 29.5357 8.15037C29.5357 8.11824 29.6453 7.62082 29.7793 7.04488C29.9132 6.46897 30.0336 5.97051 30.0469 5.93716C30.0623 5.8986 30.135 6.00898 30.2466 6.24029C30.3431 6.44036 30.4952 6.80411 30.5845 7.04864ZM22.9967 8.52726C23.8038 9.17382 24.4876 9.72543 24.5164 9.75316C24.559 9.79418 24.4851 10.1377 24.1174 11.6089L23.666 13.4144H21.5343H19.4025L18.9511 11.6089C18.5552 10.0253 18.5071 9.79624 18.5588 9.74443C18.5913 9.71193 19.2696 9.16161 20.066 8.52148C20.8624 7.88135 21.5175 7.35629 21.5217 7.35472C21.5259 7.3531 22.1897 7.88075 22.9967 8.52726ZM17.7604 9.95347C17.7852 9.97856 18.008 10.8129 18.2555 11.8074C18.5029 12.802 18.7054 13.6435 18.7054 13.6774C18.7054 13.7113 18.2951 14.2856 17.7937 14.9536C16.934 16.0987 16.8757 16.1667 16.7733 16.1453C16.7136 16.1328 15.9645 16.0129 15.1088 15.879C14.2531 15.7449 13.5314 15.6277 13.5051 15.6184C13.4788 15.6091 13.354 15.4259 13.2277 15.2113C13.1015 14.9967 12.9076 14.6291 12.7969 14.3944C12.6861 14.1597 12.5072 13.7022 12.3991 13.3778C12.2911 13.0533 12.1572 12.5605 12.1015 12.2827C12.0459 12.0048 11.9883 11.6576 11.9736 11.5112L11.9469 11.2449L13.005 9.96931L14.0631 8.6937L15.8892 9.30077C16.8936 9.63465 17.7356 9.92837 17.7604 9.95347ZM30.1008 10.0142L31.1219 11.2419L31.0951 11.5097C31.0803 11.657 31.0226 12.0048 30.967 12.2827C30.9113 12.5605 30.7774 13.0533 30.6694 13.3778C30.5613 13.7022 30.3824 14.1597 30.2716 14.3944C30.1609 14.6291 29.967 14.9967 29.8408 15.2113C29.7145 15.4259 29.5897 15.6091 29.5634 15.6184C29.5371 15.6277 28.8154 15.7449 27.9597 15.879C27.104 16.0129 26.357 16.1324 26.2997 16.1443C26.2034 16.1644 26.1275 16.0758 25.2794 14.9542C24.7754 14.2877 24.3631 13.7137 24.3631 13.6787C24.3631 13.6437 24.5631 12.8106 24.8076 11.8273C25.0521 10.844 25.2671 10.0133 25.2853 9.98131C25.3036 9.94926 26.1446 9.64682 27.1543 9.30913C28.5145 8.85432 29.0018 8.70708 29.035 8.74091C29.0596 8.76601 29.5393 9.33904 30.1008 10.0142ZM24.6917 15.3719L25.609 16.5817L25.4913 16.7865C25.4267 16.8991 25.0244 17.6028 24.5974 18.3502L23.8213 19.7092L23.5163 19.7722C23.3486 19.8068 23.084 19.8552 22.9284 19.8799C22.7729 19.9045 22.4187 19.938 22.1413 19.9544C21.864 19.9707 21.3457 19.9698 20.9896 19.9522C20.6335 19.9346 20.1622 19.8887 19.9423 19.8502L19.5424 19.7801L18.5166 18.1743L17.4909 16.5685L18.402 15.3548L19.3132 14.1412L21.5437 14.1516L23.7743 14.1621L24.6917 15.3719ZM15.4927 16.6684C16.1373 16.7692 16.7039 16.8603 16.752 16.8708C16.8144 16.8845 17.0705 17.2519 17.6511 18.1607C18.0977 18.8597 18.463 19.4413 18.463 19.4533C18.463 19.4654 18.3312 19.4282 18.17 19.3707C18.0088 19.3132 17.6406 19.1517 17.3517 19.0117C17.0627 18.8718 16.6626 18.6541 16.4626 18.5279C16.2626 18.4017 15.9261 18.1692 15.715 18.0111C15.5038 17.853 15.1246 17.5225 14.8723 17.2766C14.6199 17.0308 14.339 16.741 14.2481 16.6327L14.0827 16.4357L14.2017 16.4605C14.2672 16.4741 14.8482 16.5676 15.4927 16.6684ZM28.8556 16.5972C28.789 16.6806 28.5193 16.9593 28.2562 17.2167C27.9931 17.474 27.6505 17.7845 27.495 17.9067C27.3394 18.0289 27.0484 18.2386 26.8484 18.3726C26.6483 18.5066 26.2848 18.7229 26.0405 18.8533C25.7963 18.9836 25.4328 19.1578 25.2328 19.2403C25.0328 19.3228 24.864 19.3852 24.8578 19.3789C24.8515 19.3727 25.1571 18.8238 25.5369 18.1592C25.9167 17.4946 26.2452 16.9327 26.2669 16.9104C26.2886 16.8882 26.883 16.7767 27.5877 16.6628C28.2924 16.5488 28.8932 16.4533 28.9229 16.4506C28.9537 16.4478 28.925 16.5104 28.8556 16.5972Z" fill="#2C3E50"/>
<path fill-rule="evenodd" clip-rule="evenodd" d="M30.9163 18.3397C30.7496 18.3603 30.4111 18.4134 30.1641 18.4576C29.9171 18.5019 29.4898 18.603 29.2146 18.6822C28.9394 18.7615 28.5052 18.9092 28.2496 19.0106C27.994 19.112 27.5612 19.311 27.2878 19.453C27.0144 19.5949 26.6326 19.8142 26.4393 19.9403C26.2461 20.0664 25.9061 20.3082 25.6839 20.4776C25.4617 20.647 25.0343 21.0316 24.7343 21.3323C24.4342 21.6329 24.0503 22.061 23.8812 22.2837C23.7121 22.5063 23.472 22.845 23.3475 23.0364C23.2231 23.2277 23.0125 23.5921 22.8795 23.846C22.7466 24.0999 22.5538 24.5171 22.4512 24.7731C22.3485 25.0291 22.2029 25.4481 22.1275 25.7041C22.052 25.9601 21.9452 26.3973 21.8902 26.6756C21.8351 26.9539 21.7707 27.3806 21.7471 27.6238C21.7234 27.867 21.7041 28.3497 21.7041 28.6967C21.7041 29.0436 21.7309 29.5571 21.7637 29.8379C21.7965 30.1186 21.8693 30.5667 21.9256 30.8336C21.9818 31.1005 22.0918 31.5213 22.17 31.7687C22.2482 32.016 22.3941 32.4143 22.4943 32.6539C22.5945 32.8934 22.7771 33.2799 22.9001 33.5128C23.0232 33.7457 23.2362 34.1105 23.3736 34.3233C23.5109 34.5362 23.766 34.8901 23.9404 35.1098C24.1148 35.3294 24.3966 35.6558 24.5667 35.835C24.7367 36.0142 25.0758 36.3331 25.3203 36.5436C25.5647 36.7542 26.0102 37.0902 26.3102 37.2903C26.6102 37.4904 27.1466 37.7963 27.5021 37.9701C27.8577 38.144 28.3633 38.3605 28.6256 38.4513C28.8881 38.5422 29.2807 38.6618 29.4983 38.717C29.7158 38.7723 30.1284 38.8582 30.4151 38.908C30.8659 38.9863 31.0843 38.9988 32.0274 39C32.8755 39.001 33.2172 38.9855 33.5628 38.9305C33.8072 38.8915 34.1981 38.8138 34.4315 38.7577C34.6648 38.7017 35.0648 38.5884 35.3203 38.506C35.5759 38.4235 36.085 38.2068 36.4517 38.0244C36.8183 37.8419 37.305 37.5736 37.5332 37.4279C37.7613 37.2823 38.1332 37.0212 38.3594 36.8477C38.5857 36.6741 38.988 36.3227 39.2533 36.0666C39.5187 35.8106 39.879 35.4293 40.0541 35.2192C40.2291 35.0091 40.4787 34.6812 40.6087 34.4906C40.7386 34.2999 40.95 33.9617 41.0784 33.7391C41.2067 33.5165 41.4015 33.134 41.5111 32.8891C41.6208 32.6442 41.7918 32.1983 41.8912 31.8981C41.9906 31.598 42.1244 31.088 42.1886 30.7647C42.2528 30.4415 42.3247 29.978 42.3482 29.7348C42.3718 29.4916 42.3911 29.018 42.3911 28.6824C42.391 28.3467 42.3627 27.8262 42.3279 27.5256C42.2933 27.2251 42.2204 26.7697 42.1659 26.5137C42.1115 26.2576 42.0018 25.8387 41.9222 25.5827C41.8426 25.3266 41.6962 24.9168 41.5968 24.6719C41.4974 24.427 41.3159 24.0354 41.1934 23.8016C41.0709 23.5678 40.8194 23.1489 40.6344 22.8706C40.4495 22.5923 40.1533 22.1916 39.9764 21.9801C39.7994 21.7686 39.4653 21.413 39.2339 21.1899C39.0025 20.9668 38.6592 20.664 38.4708 20.5171C38.2825 20.3701 37.9466 20.1308 37.7244 19.9854C37.5022 19.84 37.129 19.6197 36.8951 19.4958C36.6612 19.372 36.2762 19.1894 36.0397 19.0901C35.8032 18.9908 35.4313 18.8523 35.2132 18.7823C34.9951 18.7124 34.6709 18.6197 34.4927 18.5764C34.3146 18.5332 33.9506 18.4596 33.684 18.413C33.3025 18.3463 32.9881 18.3254 32.2092 18.3152C31.6648 18.3081 31.0829 18.3191 30.9163 18.3397ZM32.3661 18.9404C32.4068 18.9662 32.3848 18.9838 32.2853 19.0051C32.2101 19.0211 31.9101 19.1218 31.6186 19.2287C31.3271 19.3357 30.8686 19.5229 30.5996 19.6447C30.3306 19.7665 29.8964 19.9889 29.6346 20.1389C29.3729 20.2888 28.9777 20.531 28.7564 20.677C28.5352 20.823 28.1261 21.1251 27.8473 21.3483C27.5686 21.5715 27.0947 22.0008 26.7942 22.3022C26.4937 22.6037 26.1092 23.0234 25.9396 23.2349C25.7701 23.4464 25.5407 23.7518 25.4299 23.9136L25.2283 24.2077L24.8879 23.8326C24.7006 23.6263 24.4624 23.3513 24.3585 23.2215C24.214 23.0411 24.1782 22.9695 24.2067 22.9179C24.2272 22.8808 24.3628 22.7025 24.508 22.5218C24.6532 22.3411 24.9317 22.0309 25.1269 21.8325C25.3222 21.6341 25.6484 21.3331 25.8518 21.1637C26.0553 20.9942 26.4281 20.7184 26.6801 20.5508C26.9322 20.3831 27.3294 20.1461 27.5627 20.024C27.7961 19.9019 28.1961 19.719 28.4516 19.6177C28.7072 19.5164 29.1345 19.3707 29.4011 19.2939C29.6678 19.2172 30.1223 19.1144 30.4112 19.0655C30.7001 19.0167 31.1274 18.9629 31.3607 18.9461C31.5941 18.9292 31.9032 18.913 32.0476 18.9102C32.192 18.9073 32.3354 18.9209 32.3661 18.9404ZM34.711 19.2916C34.9203 19.3491 35.298 19.4761 35.5503 19.5737C35.8027 19.6715 36.2042 19.8515 36.4425 19.9737C36.6809 20.096 36.9759 20.2594 37.098 20.3367C37.2425 20.4281 37.299 20.4838 37.2596 20.496C37.2264 20.5064 37.081 20.5453 36.9365 20.5825C36.7921 20.6197 36.4725 20.7122 36.2263 20.7881C35.9801 20.864 35.7484 20.9597 35.7112 21.0009C35.674 21.042 35.6436 21.1255 35.6436 21.1864C35.6436 21.2474 35.6629 21.3333 35.6865 21.3775C35.71 21.4216 35.7758 21.4754 35.8326 21.4971C35.9145 21.5282 36.0677 21.4984 36.5675 21.354C36.9149 21.2536 37.3867 21.1276 37.616 21.0739L38.0329 20.9762L38.2827 21.1822C38.4201 21.2956 38.7144 21.5715 38.9368 21.7955C39.1592 22.0195 39.4652 22.3575 39.6169 22.5468C39.7686 22.736 40.0197 23.0821 40.175 23.3159C40.4091 23.6684 40.4447 23.7429 40.3838 23.7525C40.3434 23.7589 40.1194 23.8011 39.886 23.8463C39.6527 23.8915 39.2122 23.9995 38.9073 24.0863C38.6023 24.1731 38.0932 24.3465 37.776 24.4715C37.4587 24.5966 36.9207 24.8335 36.5804 24.9978C36.24 25.1622 35.74 25.4276 35.4692 25.5876C35.1984 25.7475 34.7405 26.0386 34.4517 26.2345C34.1628 26.4303 33.7286 26.7451 33.4868 26.9342C33.245 27.1232 32.8237 27.4791 32.5507 27.725L32.0543 28.1721L31.5964 28.0169C31.3446 27.9316 30.9021 27.7642 30.6132 27.645C30.3244 27.5258 29.7467 27.2586 29.3296 27.0512L28.5713 26.6741L28.7768 26.4016C28.8898 26.2517 29.1662 25.9248 29.3911 25.675C29.6159 25.4253 29.9972 25.0439 30.2385 24.8275C30.4799 24.611 30.8629 24.2887 31.0897 24.1112C31.3166 23.9337 31.7294 23.6387 32.0072 23.4556C32.285 23.2724 32.6924 23.019 32.9126 22.8925C33.1328 22.766 33.5055 22.5667 33.7409 22.4497C33.9763 22.3326 34.3143 22.1755 34.4921 22.1003C34.6698 22.0252 34.8562 21.9278 34.9062 21.8839C34.9638 21.8333 34.9971 21.758 34.9971 21.6784C34.9971 21.6093 34.9702 21.5144 34.9374 21.4675C34.9046 21.4205 34.8309 21.3704 34.7737 21.356C34.6996 21.3374 34.5579 21.3776 34.2816 21.4959C34.0681 21.5873 33.6812 21.7686 33.4218 21.8989C33.1623 22.0292 32.7697 22.2392 32.5493 22.3656C32.3289 22.492 31.9197 22.7473 31.6399 22.9328C31.3602 23.1183 30.9453 23.4152 30.718 23.5924C30.4908 23.7696 30.0855 24.1114 29.8174 24.3519C29.5494 24.5924 29.1568 24.9813 28.945 25.2163C28.7332 25.4512 28.4381 25.8013 28.2892 25.9942L28.0186 26.345L27.5838 26.0634C27.3447 25.9086 26.974 25.6525 26.7599 25.4943C26.5459 25.3361 26.2208 25.0809 26.0375 24.9272L25.7043 24.6477L25.9011 24.3562C26.0093 24.1959 26.231 23.8917 26.3937 23.6802C26.5565 23.4687 26.9455 23.0406 27.2582 22.7289C27.5708 22.4172 28.0354 21.9999 28.2906 21.8016C28.5458 21.6032 28.9547 21.3093 29.1991 21.1485C29.4435 20.9877 29.8254 20.7583 30.0476 20.6387C30.2698 20.519 30.6376 20.3339 30.865 20.2273C31.0923 20.1208 31.4677 19.9623 31.6992 19.8752C31.9307 19.7881 32.3447 19.651 32.6192 19.5705C32.8937 19.4901 33.3547 19.3724 33.6436 19.309C33.9325 19.2457 34.2052 19.1923 34.2496 19.1904C34.2941 19.1886 34.5017 19.2341 34.711 19.2916ZM24.0269 23.8218C24.1554 23.9777 24.4354 24.2848 24.649 24.5042C24.8627 24.7237 25.2272 25.0679 25.4592 25.269C25.6911 25.4702 26.0914 25.7921 26.3487 25.9844C26.606 26.1767 27.0414 26.4767 27.3163 26.6512C27.5912 26.8256 28.0622 27.1035 28.3628 27.2685C28.6635 27.4336 29.1747 27.6931 29.4988 27.8453C29.8229 27.9975 30.3153 28.2137 30.593 28.3259C30.8708 28.438 31.2752 28.5895 31.4916 28.6624C31.7298 28.7427 31.8925 28.8202 31.9038 28.8586C31.914 28.8936 31.9675 29.159 32.0227 29.4484C32.0778 29.7378 32.1597 30.266 32.2046 30.6223C32.2495 30.9785 32.3077 31.5575 32.3339 31.9089C32.36 32.2603 32.3733 32.556 32.3634 32.5659C32.3535 32.5758 32.1102 32.5492 31.8228 32.5066C31.5353 32.4641 31.1274 32.3907 30.9163 32.3436C30.7052 32.2965 30.3457 32.2042 30.1174 32.1384C29.8892 32.0726 29.6656 32.0188 29.6207 32.0188C29.5757 32.0188 29.4943 32.0635 29.4397 32.1181C29.3795 32.1785 29.3405 32.2641 29.3405 32.3363C29.3405 32.4016 29.3723 32.4931 29.4112 32.5396C29.4583 32.5959 29.6463 32.6708 29.973 32.7633C30.2431 32.8397 30.6886 32.9484 30.9629 33.0046C31.2373 33.0609 31.6254 33.1276 31.8254 33.1528C32.0254 33.178 32.2326 33.2073 32.2859 33.2181L32.3828 33.2377L32.3551 33.8601C32.3399 34.2025 32.3099 34.6432 32.2884 34.8395C32.267 35.0358 32.2201 35.3921 32.1841 35.6315L32.1188 36.0666L31.9519 36.0663C31.8601 36.0661 31.6213 36.0476 31.4213 36.0251C31.2213 36.0026 30.885 35.956 30.6739 35.9216C30.4627 35.8871 30.0334 35.7964 29.7199 35.7201C29.4063 35.6438 28.9143 35.5005 28.6266 35.4018C28.3389 35.3031 27.8864 35.1291 27.621 35.0151C27.3556 34.9011 26.932 34.6983 26.6796 34.5645C26.4272 34.4306 26.0726 34.2285 25.8917 34.1153C25.7108 34.0021 25.4445 33.8264 25.3001 33.7249C25.1556 33.6235 24.8193 33.3671 24.5526 33.1551C24.2859 32.9432 23.782 32.4827 23.4327 32.1317C23.0834 31.7807 22.772 31.4432 22.7406 31.3818C22.7093 31.3202 22.6458 31.1151 22.5997 30.9258C22.5535 30.7366 22.4862 30.4087 22.4501 30.1972C22.4129 29.9793 22.3746 29.4533 22.3618 28.983L22.3392 28.1532L22.7044 28.5014C22.9052 28.6929 23.2396 28.9976 23.4474 29.1785C23.6553 29.3595 24.0253 29.6634 24.2698 29.8539C24.5142 30.0443 24.9721 30.3727 25.2873 30.5837C25.6025 30.7946 26.1311 31.118 26.4619 31.3022C26.7927 31.4865 27.3075 31.7482 27.606 31.8837C27.9044 32.0192 28.2178 32.1546 28.3025 32.1846C28.4347 32.2315 28.4717 32.2306 28.5651 32.1781C28.6249 32.1445 28.6976 32.0676 28.7266 32.0072C28.77 31.9167 28.7699 31.8777 28.7261 31.786C28.6968 31.7248 28.6095 31.643 28.532 31.6041C28.4544 31.5653 28.1637 31.4318 27.886 31.3074C27.6082 31.1829 27.1533 30.9563 26.8752 30.8038C26.5971 30.6512 26.1572 30.3904 25.8975 30.224C25.6379 30.0577 25.2109 29.7621 24.9486 29.5671C24.6864 29.3721 24.3111 29.0763 24.1148 28.9099C23.9185 28.7434 23.5713 28.4322 23.3433 28.2182C23.1153 28.0043 22.815 27.7065 22.6759 27.5564L22.4229 27.2837L22.4696 27.01C22.4952 26.8594 22.5612 26.5542 22.6163 26.3315C22.6714 26.1089 22.7641 25.781 22.8222 25.6029C22.8804 25.4248 23.0086 25.0878 23.1071 24.8541C23.2056 24.6203 23.3976 24.2248 23.5337 23.9752C23.6699 23.7256 23.784 23.5252 23.7873 23.5299C23.7906 23.5346 23.8984 23.666 24.0269 23.8218ZM40.9406 24.7163C41.0289 24.9076 41.1807 25.3038 41.278 25.5967C41.3753 25.8895 41.5013 26.3568 41.5579 26.6351C41.6145 26.9134 41.6831 27.3141 41.7102 27.5256C41.7374 27.7371 41.7595 28.2563 41.7593 28.6793C41.759 29.1023 41.7359 29.6214 41.7078 29.8329C41.6797 30.0444 41.6113 30.4361 41.5558 30.7032C41.5002 30.9704 41.3997 31.362 41.3323 31.5735C41.2649 31.785 41.1593 32.0856 41.0975 32.2414C41.0357 32.3972 40.9079 32.6844 40.8134 32.8795C40.7188 33.0747 40.6352 33.228 40.6275 33.2203C40.6197 33.2126 40.6397 33.0164 40.6719 32.7845C40.704 32.5526 40.7515 32.0532 40.7773 31.6747C40.8047 31.2721 40.8129 30.7262 40.7971 30.3591C40.7822 30.0141 40.7427 29.4767 40.7094 29.165C40.6759 28.8533 40.6047 28.3599 40.5511 28.0685C40.4975 27.7771 40.3981 27.3217 40.3302 27.0565C40.2623 26.7914 40.1169 26.3074 40.0071 25.9812C39.8973 25.6549 39.7322 25.2122 39.6402 24.9973C39.5482 24.7825 39.4804 24.5992 39.4896 24.5901C39.4987 24.5809 39.7235 24.5289 39.9891 24.4745C40.2546 24.4201 40.5413 24.374 40.626 24.372L40.7801 24.3683L40.9406 24.7163ZM39.0479 25.2487C39.1534 25.5103 39.3131 25.9418 39.4027 26.2076C39.4924 26.4734 39.6191 26.8924 39.6842 27.1386C39.7493 27.3849 39.8475 27.8142 39.9023 28.0926C39.9571 28.371 40.0342 28.8628 40.0735 29.1855C40.1245 29.6029 40.1454 30.0701 40.1461 30.8044C40.1466 31.3868 40.1247 32.0306 40.0956 32.2819C40.0674 32.5268 40.0082 32.9457 39.9642 33.2129C39.9201 33.48 39.8264 33.9407 39.7559 34.2367L39.6276 34.7747L39.2782 35.1693C39.0859 35.3863 38.7759 35.7001 38.5892 35.8665C38.4024 36.0329 38.1042 36.2799 37.9264 36.4154C37.7486 36.5508 37.4711 36.7464 37.3097 36.85C37.1483 36.9536 36.8589 37.1235 36.6667 37.2276C36.3804 37.3827 36.3214 37.4028 36.34 37.3388C36.3525 37.2959 36.427 37.0298 36.5056 36.7474C36.5841 36.4651 36.6942 36.028 36.7502 35.776C36.8063 35.524 36.8882 35.1076 36.9323 34.8507C36.9764 34.5939 37.0446 34.1111 37.0839 33.7781C37.1375 33.3234 37.1554 32.8596 37.1557 31.9176C37.156 30.9707 37.1387 30.5187 37.0854 30.0758C37.0465 29.753 36.9693 29.2247 36.9139 28.9019C36.8585 28.5791 36.7411 28.0368 36.653 27.6969C36.5648 27.357 36.4021 26.8298 36.2913 26.5255C36.1806 26.2211 36.094 25.9695 36.0991 25.9664C36.1041 25.9633 36.2656 25.8765 36.4578 25.7736C36.6501 25.6707 37.0138 25.4928 37.2659 25.3783C37.5181 25.2638 37.9335 25.0921 38.1891 24.9968C38.4446 24.9015 38.681 24.8137 38.7143 24.8015C38.7476 24.7894 38.7932 24.778 38.8155 24.7763C38.8379 24.7746 38.9425 24.9871 39.0479 25.2487ZM35.7486 26.9209C35.8504 27.2201 35.9957 27.7073 36.0716 28.0036C36.1475 28.2998 36.2536 28.8008 36.3076 29.1167C36.3615 29.4327 36.4296 29.8825 36.4589 30.1163C36.4937 30.3936 36.5121 31.0126 36.5117 31.8973C36.5113 32.9725 36.496 33.3708 36.4376 33.8201C36.3971 34.1318 36.3195 34.6418 36.2652 34.9535C36.2109 35.2652 36.0868 35.8298 35.9893 36.2083C35.8918 36.5868 35.7509 37.0868 35.676 37.3195L35.5398 37.7426L35.3008 37.8389C35.1693 37.8918 34.8182 37.9977 34.5204 38.0741C34.2227 38.1506 33.8053 38.2411 33.5928 38.2754C33.3804 38.3097 32.9685 38.3523 32.6776 38.3702C32.3866 38.3881 32.1432 38.3984 32.1367 38.3932C32.1301 38.388 32.1982 38.1703 32.288 37.9094C32.3777 37.6486 32.5149 37.1762 32.5928 36.8597C32.6707 36.5433 32.7784 36.0026 32.8323 35.6582C32.8861 35.3139 32.9523 34.733 32.9793 34.3675C33.0102 33.9497 33.02 33.3259 33.0056 32.6887C32.9915 32.0653 32.9504 31.4021 32.899 30.9671C32.8531 30.5778 32.7967 30.1498 32.7737 30.0158C32.7508 29.8818 32.6849 29.5204 32.6271 29.2127L32.5222 28.6533L32.6586 28.5104C32.7337 28.4319 32.9843 28.2033 33.2157 28.0024C33.447 27.8015 33.8925 27.445 34.2056 27.2104C34.5187 26.9757 34.937 26.6767 35.1351 26.546C35.3332 26.4153 35.5106 26.3238 35.5294 26.3426C35.5482 26.3615 35.6469 26.6217 35.7486 26.9209ZM24.2092 33.7032C24.3758 33.8372 24.694 34.0753 24.9162 34.2324C25.1385 34.3894 25.5112 34.6328 25.7445 34.7733C25.9779 34.9137 26.4597 35.1696 26.8152 35.3419C27.1708 35.5143 27.7104 35.7479 28.0142 35.861C28.3181 35.9742 28.7909 36.1314 29.0648 36.2105C29.3387 36.2895 29.8264 36.4067 30.1486 36.4709C30.4708 36.5352 30.9072 36.6066 31.1183 36.6297C31.3294 36.6527 31.6067 36.6825 31.7345 36.6959C31.962 36.7196 31.9663 36.7224 31.9411 36.8285C31.9268 36.8881 31.8736 37.0826 31.8228 37.2608C31.772 37.4389 31.6741 37.7394 31.6054 37.9286C31.5366 38.1179 31.4644 38.2983 31.4447 38.3295C31.4146 38.3773 31.343 38.3787 30.9914 38.3387C30.7617 38.3125 30.3463 38.2452 30.0683 38.1891C29.7903 38.1329 29.2932 37.9971 28.9637 37.8872C28.6342 37.7772 28.107 37.561 27.792 37.4067C27.477 37.2524 27.0193 36.995 26.7748 36.8348C26.5304 36.6746 26.1577 36.4049 25.9466 36.2355C25.7354 36.0661 25.3891 35.7539 25.177 35.5417C24.9649 35.3295 24.6467 34.9737 24.4699 34.751C24.2932 34.5283 24.0374 34.1731 23.9016 33.9616C23.7658 33.7502 23.5759 33.4315 23.4795 33.2534L23.3044 32.9295L23.6053 33.1945C23.7707 33.3403 24.0425 33.5691 24.2092 33.7032Z" fill="#2C3E50"/>
<path fill-rule="evenodd" clip-rule="evenodd" d="M9.36186 18.3227C9.27284 18.3323 8.97346 18.3764 8.69661 18.4205C8.41972 18.4648 8.04644 18.5376 7.86711 18.5825C7.68774 18.6273 7.36804 18.7203 7.15661 18.7892C6.94519 18.858 6.61744 18.9777 6.42828 19.0552C6.23911 19.1327 5.90436 19.2863 5.68436 19.3966C5.4644 19.5068 5.11844 19.6996 4.91556 19.825C4.71272 19.9504 4.33734 20.2111 4.08141 20.4043C3.82548 20.5975 3.43829 20.923 3.22096 21.1277C3.00363 21.3324 2.64723 21.7129 2.42901 21.9732C2.21079 22.2335 1.8936 22.6549 1.72418 22.9096C1.55476 23.1642 1.29762 23.6001 1.1528 23.8781C1.00798 24.1562 0.806394 24.5964 0.704912 24.8563C0.60339 25.1162 0.455577 25.553 0.376391 25.827C0.297245 26.101 0.18585 26.5891 0.128877 26.9117C0.0476675 27.3715 0.0209213 27.6836 0.00501925 28.3569C-0.00720064 28.8742 0.00336026 29.3967 0.0316036 29.6714C0.0574192 29.9221 0.106542 30.2819 0.140854 30.471C0.175127 30.6601 0.246544 30.9881 0.299592 31.1999C0.352599 31.4117 0.470508 31.8031 0.561591 32.0695C0.652714 32.336 0.871014 32.8483 1.04679 33.2079C1.22252 33.5674 1.52069 34.0905 1.70933 34.3703C1.89801 34.6501 2.16725 35.0202 2.30766 35.1928C2.44803 35.3654 2.72646 35.6764 2.9263 35.8837C3.12619 36.0911 3.46956 36.4097 3.68944 36.5916C3.90928 36.7735 4.31047 37.0738 4.58097 37.2589C4.85579 37.4469 5.37619 37.745 5.76063 37.9346C6.13896 38.1213 6.6666 38.3483 6.93322 38.4391C7.19979 38.5299 7.59127 38.6475 7.80318 38.7005C8.01504 38.7535 8.3432 38.8249 8.53236 38.8592C8.72153 38.8935 9.08291 38.9427 9.3354 38.9687C9.61828 38.9978 10.123 39.0075 10.6505 38.9941C11.2469 38.9789 11.6598 38.9463 12.0122 38.8866C12.2904 38.8396 12.7183 38.7479 12.9631 38.6829C13.2079 38.6179 13.5994 38.4992 13.8331 38.419C14.0667 38.3388 14.5492 38.13 14.9053 37.9549C15.2614 37.7798 15.7712 37.4911 16.0383 37.3133C16.3054 37.1354 16.6786 36.8664 16.8678 36.7152C17.057 36.5641 17.4219 36.2304 17.6788 35.9736C17.9357 35.7168 18.2695 35.352 18.4205 35.1629C18.5714 34.9738 18.8289 34.6189 18.9926 34.3742C19.1564 34.1295 19.4081 33.7017 19.552 33.4237C19.696 33.1456 19.8967 32.7088 19.998 32.4529C20.0993 32.1971 20.2479 31.7603 20.3281 31.4822C20.4083 31.2041 20.5219 30.7127 20.5805 30.3901C20.6793 29.846 20.687 29.7204 20.687 28.6509C20.687 27.5814 20.6793 27.4558 20.5805 26.9117C20.5219 26.5891 20.4083 26.0977 20.3281 25.8196C20.2479 25.5415 20.0993 25.1047 19.998 24.8489C19.8967 24.593 19.696 24.1562 19.552 23.8781C19.4081 23.6001 19.1564 23.1723 18.9926 22.9276C18.8289 22.6829 18.5714 22.328 18.4205 22.1389C18.2695 21.9498 17.9357 21.585 17.6788 21.3282C17.4219 21.0714 17.057 20.7378 16.8678 20.5869C16.6786 20.436 16.3236 20.1786 16.0788 20.015C15.834 19.8513 15.4061 19.5997 15.1279 19.4557C14.8497 19.3119 14.4127 19.1113 14.1568 19.01C13.9008 18.9087 13.4638 18.7602 13.1856 18.68C12.9075 18.5998 12.4158 18.4876 12.0931 18.4306C11.5886 18.3415 11.3675 18.3254 10.5151 18.3161C9.96982 18.3102 9.45088 18.3132 9.36186 18.3227ZM11.0411 19.0417C11.297 19.0529 11.7158 19.0987 11.9717 19.1435C12.2277 19.1882 12.6647 19.2873 12.9429 19.3636C13.221 19.4398 13.6398 19.5781 13.8735 19.6708C14.1072 19.7634 14.5212 19.9551 14.7935 20.0967C15.0658 20.2383 15.4664 20.4727 15.6837 20.6176C15.901 20.7624 16.2426 21.0148 16.4429 21.1783C16.7924 21.4637 16.807 21.4822 16.8041 21.6354C16.8025 21.7232 16.7623 22.0499 16.7148 22.3614C16.6673 22.6728 16.6079 23.2644 16.5827 23.6759C16.556 24.1138 16.5487 24.7034 16.5653 25.0973L16.5935 25.7703L16.3968 25.7953C16.2886 25.809 15.836 25.8572 15.3909 25.9025C14.9458 25.9477 14.5562 25.9886 14.5251 25.9932C14.4883 25.9987 14.3882 25.8174 14.2394 25.4758C14.1134 25.1866 13.9408 24.8135 13.856 24.6466C13.7711 24.4798 13.5734 24.1249 13.4166 23.8579C13.2599 23.591 13.0095 23.1905 12.8602 22.9681C12.7108 22.7456 12.4806 22.4233 12.3486 22.2519C12.2165 22.0805 11.9214 21.7306 11.6927 21.4744C11.4641 21.2181 11.0828 20.8357 10.8455 20.6245C10.6081 20.4133 10.235 20.1065 10.0162 19.9428C9.79753 19.779 9.43801 19.5372 9.21733 19.4055C8.99664 19.2738 8.81597 19.1546 8.81585 19.1405C8.81573 19.1265 9.02047 19.0943 9.27082 19.0689C9.52121 19.0435 9.86259 19.0186 10.0295 19.0135C10.1964 19.0084 10.3876 19.0081 10.4544 19.0128C10.5211 19.0175 10.7852 19.0305 11.0411 19.0417ZM8.13303 19.6339C8.40236 19.7688 8.77077 19.9719 8.95181 20.0852C9.13284 20.1985 9.45392 20.4229 9.66534 20.5839C9.87676 20.7448 10.2166 21.0286 10.4205 21.2145C10.6244 21.4004 10.9171 21.6889 11.071 21.8558C11.2249 22.0226 11.501 22.3484 11.6846 22.5797C11.8682 22.811 12.1416 23.1842 12.292 23.4089C12.4426 23.6336 12.6811 24.0177 12.8222 24.2624C12.9634 24.5071 13.2109 24.9803 13.3724 25.314C13.5339 25.6477 13.6783 25.9708 13.6932 26.032C13.7176 26.1316 13.7096 26.1432 13.6159 26.1432C13.5584 26.1432 13.1695 26.2074 12.7517 26.2859C12.3338 26.3643 11.7196 26.4944 11.3867 26.5749C10.8846 26.6962 10.7758 26.7115 10.7484 26.6647C10.7301 26.6337 10.6077 26.4247 10.4762 26.2003C10.3448 25.9758 10.1025 25.6118 9.93777 25.3913C9.77305 25.1708 9.47965 24.8129 9.28575 24.5959C9.09185 24.3789 8.77676 24.0646 8.58558 23.8976C8.39439 23.7305 8.10483 23.4936 7.94217 23.3713C7.77951 23.2489 7.49525 23.0549 7.3105 22.9402C7.1257 22.8255 6.77424 22.6354 6.52943 22.5178C6.28463 22.4002 5.86584 22.2314 5.59878 22.1428C5.33172 22.0541 4.92203 21.9426 4.68836 21.8951C4.45468 21.8475 4.1315 21.7984 3.97013 21.7859C3.80881 21.7734 3.67678 21.7492 3.67678 21.732C3.67678 21.7148 3.7906 21.5969 3.92967 21.4699C4.06878 21.3429 4.34644 21.1153 4.54674 20.9641C4.74703 20.8129 5.07478 20.5859 5.27507 20.4598C5.47537 20.3336 5.86685 20.1191 6.14503 19.9832C6.42322 19.8473 6.86933 19.6588 7.13638 19.5644C7.40344 19.4701 7.62676 19.3919 7.63267 19.3907C7.63857 19.3895 7.86375 19.4989 8.13303 19.6339ZM17.8757 22.6221C18.0482 22.8386 18.294 23.1746 18.422 23.3688C18.5499 23.5629 18.7656 23.9331 18.9013 24.1915C19.0371 24.4498 19.2351 24.8808 19.3413 25.1493C19.4475 25.4178 19.5217 25.6491 19.5061 25.6633C19.4905 25.6775 18.9932 25.6975 18.401 25.7079L17.3243 25.7266L17.2986 25.3383C17.2844 25.1247 17.273 24.7316 17.2733 24.4646C17.2735 24.1977 17.2912 23.7609 17.3126 23.4939C17.3341 23.2269 17.3718 22.8447 17.3965 22.6445C17.4212 22.4443 17.4488 22.2566 17.4578 22.2274C17.4668 22.1981 17.4939 22.1864 17.5181 22.2014C17.5422 22.2163 17.7031 22.4056 17.8757 22.6221ZM4.05462 22.5232C4.30926 22.5565 4.69418 22.6297 4.91005 22.6858C5.12593 22.7418 5.46553 22.8506 5.66474 22.9275C5.86394 23.0044 6.20553 23.159 6.42383 23.2711C6.64212 23.3832 6.97368 23.5776 7.16062 23.7031C7.3476 23.8286 7.63712 24.0414 7.80403 24.176C7.97094 24.3106 8.28072 24.5944 8.49247 24.8067C8.70417 25.019 8.99959 25.3494 9.1489 25.5409C9.29825 25.7324 9.55795 26.1042 9.72603 26.3669C9.89408 26.6297 10.0251 26.8641 10.0173 26.8877C10.0094 26.9114 9.94065 26.9472 9.8645 26.9673C9.78834 26.9875 9.31743 27.1388 8.818 27.3037C8.3186 27.4685 7.62668 27.7189 7.28039 27.8601C6.93415 28.0013 6.39591 28.234 6.08434 28.3773C5.77277 28.5205 5.24473 28.7839 4.9109 28.9625C4.57708 29.141 4.11277 29.4014 3.87909 29.5411C3.64542 29.6808 3.19992 29.9673 2.88908 30.1777C2.57824 30.3881 2.15944 30.6853 1.95842 30.838C1.7574 30.9908 1.48974 31.1985 1.36361 31.2996L1.13427 31.4835L1.09231 31.3514C1.06924 31.2787 1.01498 31.0737 0.971727 30.8957C0.928471 30.7177 0.872996 30.4538 0.848435 30.3092C0.823874 30.1646 0.785596 29.8921 0.763381 29.7036C0.741127 29.5151 0.722959 29.0382 0.722959 28.6439C0.722959 28.2303 0.749422 27.7251 0.785474 27.4497C0.819868 27.1872 0.892742 26.774 0.947449 26.5315C1.00216 26.2891 1.11849 25.8767 1.20597 25.6152C1.29341 25.3537 1.46259 24.9241 1.58191 24.6606C1.7012 24.3971 1.91286 23.99 2.05222 23.7559C2.19157 23.5218 2.45114 23.135 2.62902 22.8964L2.95248 22.4625H3.2721C3.44788 22.4625 3.80003 22.4898 4.05462 22.5232ZM19.777 26.578C19.8015 26.6837 19.8506 26.943 19.8862 27.1544C19.9219 27.3657 19.9629 27.7889 19.9774 28.0948C19.9918 28.4007 19.9918 28.9012 19.9772 29.2071C19.9627 29.513 19.9202 29.9452 19.8829 30.1677C19.8456 30.3901 19.7697 30.7534 19.7143 30.975C19.6589 31.1966 19.6036 31.3939 19.5915 31.4136C19.5793 31.4332 19.4879 31.3702 19.3882 31.2737C19.2886 31.177 19.1297 30.9978 19.0352 30.8755C18.9407 30.7531 18.7675 30.4933 18.6505 30.2981C18.5334 30.1029 18.3495 29.7439 18.2418 29.5004C18.1341 29.2568 17.9826 28.8614 17.9051 28.6217C17.8277 28.3819 17.7187 28.0037 17.6629 27.7813C17.6072 27.5588 17.529 27.182 17.4893 26.9439C17.4496 26.7057 17.4315 26.4965 17.4491 26.4789C17.4667 26.4613 17.8484 26.4365 18.2973 26.4236C18.7462 26.4108 19.2528 26.3971 19.423 26.3931L19.7326 26.3859L19.777 26.578ZM16.7237 26.76C16.7392 26.8991 16.7975 27.23 16.8533 27.4954C16.9091 27.7609 17.0163 28.1915 17.0914 28.4525C17.1666 28.7135 17.3125 29.1424 17.4158 29.4058C17.519 29.6691 17.6947 30.0575 17.8061 30.2688C17.9176 30.4801 18.1108 30.8077 18.2355 30.9968C18.3602 31.1859 18.6561 31.5369 18.8931 31.7768L19.324 32.2129L19.1952 32.5088C19.1245 32.6715 18.971 32.9835 18.8542 33.202C18.7374 33.4206 18.54 33.7539 18.4156 33.9427C18.2912 34.1316 18.0503 34.4606 17.8802 34.6739C17.7101 34.8872 17.3945 35.238 17.179 35.4535C16.9633 35.669 16.6549 35.9526 16.4935 36.0838C16.3322 36.215 16.0672 36.4185 15.9048 36.536C15.7423 36.6536 15.6027 36.7431 15.5945 36.7349C15.5863 36.7267 15.5951 36.6375 15.6139 36.5367C15.6327 36.4359 15.6855 36.0719 15.7312 35.7278C15.7769 35.3837 15.8345 34.811 15.8593 34.4551C15.8855 34.0773 15.8932 33.4964 15.8776 33.0596C15.863 32.6481 15.8248 32.0145 15.7928 31.6517C15.7607 31.2888 15.6968 30.7428 15.6508 30.4383C15.6048 30.1337 15.5134 29.6206 15.4477 29.2981C15.3819 28.9755 15.2563 28.4477 15.1685 28.1251C15.0807 27.8025 14.9458 27.352 14.8687 27.124C14.7917 26.896 14.7319 26.7075 14.736 26.7051C14.7401 26.7027 15.1167 26.6594 15.573 26.6088C16.0292 26.5583 16.4684 26.5147 16.549 26.512L16.6955 26.5072L16.7237 26.76ZM14.1705 27.2948C14.2546 27.5499 14.3871 27.9913 14.465 28.2756C14.543 28.5599 14.6606 29.0511 14.7264 29.3673C14.7922 29.6834 14.8832 30.1839 14.9287 30.4796C14.9742 30.7752 15.0376 31.2992 15.0694 31.644C15.1014 31.9888 15.1391 32.6531 15.1533 33.1203C15.1694 33.6522 15.1613 34.189 15.1314 34.5562C15.1053 34.8787 15.0302 35.5186 14.9646 35.9781C14.8991 36.4375 14.8251 36.9084 14.8002 37.0244L14.7549 37.2353L14.3758 37.4124C14.1673 37.5098 13.7608 37.6703 13.4725 37.769C13.1842 37.8677 12.7422 37.9945 12.4904 38.0507C12.2385 38.1069 11.8175 38.1809 11.5549 38.2151C11.2923 38.2493 10.9871 38.2773 10.8768 38.2773H10.6762L10.8999 37.8316C11.0228 37.5865 11.1799 37.2452 11.2489 37.0732C11.318 36.9013 11.4278 36.6058 11.493 36.4167C11.5582 36.2277 11.6655 35.8545 11.7315 35.5876C11.7974 35.3206 11.8869 34.8929 11.9303 34.6371C11.9738 34.3812 12.0316 33.9626 12.0589 33.7068C12.0862 33.451 12.1088 32.8048 12.1092 32.2709C12.1096 31.7153 12.0877 31.1272 12.058 30.8957C12.0296 30.6733 11.9619 30.2616 11.9076 29.981C11.8535 29.7003 11.7455 29.2387 11.6677 28.9551C11.59 28.6715 11.4335 28.2038 11.32 27.9157C11.2065 27.6276 11.1201 27.3856 11.1279 27.3779C11.1358 27.3701 11.4336 27.2994 11.7897 27.2206C12.1457 27.1418 12.6829 27.0319 12.9833 26.9764C13.2838 26.9209 13.5751 26.8678 13.6307 26.8586C13.6864 26.8493 13.7962 26.8393 13.8748 26.8363L14.0178 26.8308L14.1705 27.2948ZM10.6301 28.1486C10.7437 28.4395 10.8988 28.8945 10.9748 29.1597C11.0508 29.4249 11.1601 29.9058 11.2177 30.2283C11.2754 30.5509 11.341 31.0332 11.3635 31.3002C11.386 31.5671 11.4046 32.0166 11.4049 32.2991C11.4051 32.5815 11.3864 33.0456 11.3633 33.3305C11.3403 33.6153 11.2932 34.0395 11.2588 34.273C11.2244 34.5066 11.1511 34.898 11.096 35.1427C11.0408 35.3874 10.9485 35.7423 10.8908 35.9314C10.8331 36.1205 10.7144 36.4572 10.6269 36.6796C10.5395 36.9021 10.3506 37.3116 10.2071 37.5897C10.0637 37.8678 9.91289 38.1389 9.87202 38.1922L9.79777 38.289L9.33706 38.2385C9.08364 38.2107 8.73974 38.1622 8.57283 38.1306C8.40592 38.0991 8.09637 38.0274 7.88495 37.9713C7.67353 37.9153 7.31847 37.8049 7.09592 37.7261C6.87337 37.6473 6.43637 37.4586 6.1248 37.3068C5.81324 37.155 5.33981 36.8869 5.07276 36.7112C4.8057 36.5354 4.42332 36.2543 4.22303 36.0866C4.02274 35.9188 3.71505 35.6379 3.53924 35.4622C3.36347 35.2864 3.08237 34.9788 2.91457 34.7786C2.74677 34.5784 2.46559 34.1962 2.28974 33.9292C2.11388 33.6623 1.8442 33.1881 1.69043 32.8754C1.53663 32.5628 1.41189 32.2807 1.41314 32.2485C1.41439 32.2164 1.52696 32.099 1.66328 31.9878C1.79956 31.8766 2.12096 31.625 2.37742 31.4289C2.63392 31.2326 3.10859 30.8965 3.43226 30.6818C3.75588 30.4671 4.28474 30.1394 4.60743 29.9535C4.93012 29.7676 5.5219 29.4545 5.92249 29.2577C6.32307 29.0609 6.94196 28.7792 7.29779 28.6317C7.65363 28.4842 8.20898 28.27 8.53192 28.1557C8.85486 28.0414 9.40131 27.8628 9.74626 27.7586C10.0912 27.6544 10.3847 27.5805 10.3985 27.5943C10.4123 27.6082 10.5165 27.8576 10.6301 28.1486ZM2.84052 32.5571C2.7534 32.6442 2.73977 32.6874 2.75757 32.8198C2.77105 32.9205 2.86083 33.1001 3.00367 33.3122C3.12733 33.4959 3.38888 33.8372 3.58488 34.0708C3.92401 34.4749 3.94962 34.4961 4.11204 34.5079C4.25022 34.518 4.30218 34.501 4.38444 34.4187C4.45407 34.3491 4.48604 34.2728 4.48604 34.1761C4.48604 34.0595 4.4283 33.9644 4.15222 33.6263C3.96864 33.4014 3.7229 33.0788 3.60617 32.9093C3.48943 32.7399 3.36371 32.5679 3.32677 32.5271C3.28355 32.4794 3.20348 32.4529 3.1022 32.4529C2.98696 32.4529 2.9168 32.4809 2.84052 32.5571ZM5.6159 35.3216C5.54824 35.3892 5.49762 35.4831 5.49762 35.5409C5.49762 35.5965 5.54355 35.6966 5.59971 35.7633C5.65583 35.83 5.88801 35.993 6.11562 36.1256C6.34322 36.2581 6.65689 36.43 6.81268 36.5075C6.96846 36.585 7.26421 36.7147 7.46992 36.7955C7.67564 36.8764 7.8962 36.9426 7.96009 36.9426C8.03163 36.9426 8.11721 36.9016 8.18292 36.8359C8.25442 36.7644 8.28959 36.686 8.28959 36.5977C8.28959 36.5253 8.25774 36.4276 8.21877 36.3805C8.17981 36.3333 7.95678 36.2158 7.7231 36.1194C7.48943 36.0229 7.17078 35.8792 7.01499 35.8001C6.85921 35.721 6.5597 35.5543 6.34941 35.4298C6.12318 35.2958 5.91957 35.2033 5.85062 35.2033C5.77589 35.2033 5.69185 35.2456 5.6159 35.3216Z" fill="#2C3E50"/>
</svg>
