<svg width="28" height="40" viewBox="0 0 28 40" fill="none" xmlns="http://www.w3.org/2000/svg">
<path d="M1.52759 0L3.38838 1.83349V34.0615L1.52759 35.9364V0Z" fill="#2C3E50"/>
<path d="M3.7605 2.2002L5.62129 3.80917V32.0909L3.7605 33.7363V2.2002Z" fill="#2C3E50"/>
<path d="M5.99341 4.03369L7.8542 5.45558V30.4488L5.99341 31.9028V4.03369Z" fill="#2C3E50"/>
<path d="M15.2973 12.8344L16.4138 13.9345L8.9706 21.2685L7.85413 20.1684L15.2973 12.8344Z" fill="#2C3E50"/>
<path d="M16.786 14.3012L17.9025 15.4013L10.4594 22.7353L9.3429 21.6352L16.786 14.3012Z" fill="#2C3E50"/>
<path d="M18.2747 15.768L19.3912 16.8681L11.948 24.2021L10.8315 23.102L18.2747 15.768Z" fill="#2C3E50"/>
<path d="M27.9691 38.5261L25.1548 38.5033L1.52672 15.4194L1.52673 12.4107L27.9691 38.5261Z" fill="#2C3E50"/>
<path d="M24.7826 38.5066L21.8053 38.5066L1.53598 18.3349L1.53598 15.768L24.7826 38.5066Z" fill="#2C3E50"/>
<path d="M21.4332 38.5034L18.642 38.5034L1.52936 21.0852L1.52937 18.7016L21.4332 38.5034Z" fill="#2C3E50"/>
</svg>
