<svg width="50" height="43" viewBox="0 0 50 43" fill="none" xmlns="http://www.w3.org/2000/svg">
<path fill-rule="evenodd" clip-rule="evenodd" d="M24.3721 0.210034C24.0619 0.351986 23.8519 0.549991 23.7245 0.820392C23.6208 1.04064 23.536 1.35597 23.536 1.5213C23.536 1.68651 23.611 1.96792 23.7027 2.14652C23.7944 2.32512 23.9971 2.57249 24.1532 2.69629C24.3092 2.81997 24.4369 2.97667 24.4369 3.04453C24.4369 3.11238 24.323 3.19147 24.1836 3.22029C24.0441 3.24911 23.6515 3.33342 23.3108 3.40775C22.9702 3.48207 22.3874 3.68167 22.0158 3.8513C21.6441 4.02094 21.0642 4.37043 20.7269 4.62801C20.1555 5.06453 20.1001 5.08382 19.9125 4.91282C19.7207 4.73785 19.7269 4.7113 20.0471 4.34399C20.2318 4.13203 20.3829 3.86186 20.3829 3.74373C20.3829 3.6255 20.3033 3.4486 20.206 3.35044C20.1086 3.25241 19.9006 3.17218 19.7437 3.17218C19.5384 3.17218 19.1904 3.43509 18.5044 4.10831C17.9797 4.62313 17.475 5.18878 17.3828 5.36511C17.233 5.65151 17.2342 5.71528 17.3939 5.96083C17.5024 6.12764 17.681 6.23589 17.8477 6.23589C17.999 6.23589 18.2949 6.08361 18.5053 5.89752C18.8802 5.56584 18.8916 5.56346 19.0834 5.77713C19.2708 5.98568 19.2616 6.02358 18.8661 6.66923C18.639 7.03994 18.3208 7.74527 18.1592 8.23637C17.9108 8.99129 17.8654 9.33114 17.8657 10.4343C17.8659 11.5473 17.9108 11.8763 18.1708 12.6714C18.3481 13.2131 18.7093 13.9553 19.0336 14.4439C19.3404 14.9061 19.7997 15.4739 20.0542 15.7055C20.3087 15.9372 20.8248 16.3273 21.2012 16.5724C21.5776 16.8175 22.2948 17.154 22.7953 17.3204C23.568 17.5772 23.9 17.6228 25 17.6228C26.1 17.6228 26.432 17.5772 27.2047 17.3204C27.7052 17.154 28.4224 16.8175 28.7988 16.5724C29.1752 16.3273 29.6913 15.9372 29.9458 15.7055C30.2003 15.4739 30.6596 14.9061 30.9664 14.4439C31.2907 13.9553 31.6519 13.2131 31.8292 12.6714C32.0883 11.8791 32.1345 11.5434 32.1366 10.4343C32.1387 9.30322 32.098 9.00842 31.83 8.22162C31.6599 7.72235 31.3408 7.01713 31.1208 6.65437C30.7379 6.02313 30.7293 5.98568 30.9166 5.77713C31.1084 5.56346 31.1198 5.56584 31.4947 5.89752C31.7051 6.08361 32.001 6.23589 32.1523 6.23589C32.319 6.23589 32.4976 6.12764 32.6061 5.96083C32.7652 5.71619 32.7666 5.65038 32.6191 5.36511C32.5279 5.18878 32.024 4.62313 31.4994 4.10831C30.8099 3.43169 30.4659 3.17218 30.2583 3.17218C30.1003 3.17218 29.8914 3.25241 29.794 3.35044C29.6967 3.4486 29.6171 3.6255 29.6171 3.74373C29.6171 3.86186 29.7682 4.13203 29.9529 4.34399C30.2731 4.7113 30.2793 4.73785 30.0875 4.91282C29.8999 5.08382 29.8445 5.06453 29.2731 4.62892C28.9358 4.37191 28.4123 4.04488 28.1096 3.90225C27.8069 3.75951 27.2494 3.56479 26.8708 3.46947C26.4922 3.37405 26.043 3.26716 25.8727 3.23198C25.7025 3.19669 25.5631 3.11238 25.5631 3.04453C25.5631 2.97667 25.6908 2.81997 25.8468 2.69629C26.0029 2.57249 26.2056 2.32512 26.2973 2.14652C26.389 1.96792 26.464 1.68651 26.464 1.5213C26.464 1.35597 26.3792 1.04064 26.2754 0.820392C26.1481 0.549991 25.9381 0.351986 25.6279 0.210034C25.3754 0.0945209 25.0929 0 25 0C24.9071 0 24.6245 0.0945209 24.3721 0.210034ZM25.1874 1.42099C25.2247 1.5188 25.1977 1.65667 25.1276 1.72736C25.0325 1.82313 24.9675 1.82313 24.8724 1.72736C24.8023 1.65667 24.7753 1.5188 24.8126 1.42099C24.8499 1.32318 24.9341 1.24318 25 1.24318C25.0659 1.24318 25.1501 1.32318 25.1874 1.42099ZM26.9707 4.75101C27.3423 4.8832 27.9879 5.22532 28.4054 5.51138C28.861 5.82365 29.374 6.31055 29.6885 6.72948C29.9767 7.11324 30.3059 7.63713 30.4198 7.89369C30.5339 8.15013 30.7102 8.68628 30.8117 9.08513C30.9443 9.60608 30.9793 10.0817 30.936 10.7747C30.9026 11.3115 30.7714 12.0371 30.6402 12.4108C30.5105 12.7803 30.2554 13.3164 30.0732 13.6023C29.891 13.8882 29.5239 14.3448 29.2572 14.617C28.9907 14.8893 28.5577 15.2616 28.295 15.4444C28.0325 15.6272 27.4751 15.9119 27.0563 16.0771C26.3896 16.3401 26.1342 16.3774 25 16.3771C23.9117 16.3769 23.5971 16.3345 23.0293 16.1119C22.6577 15.9662 22.0956 15.6817 21.7803 15.4798C21.465 15.2778 21.0159 14.9151 20.7824 14.674C20.549 14.4329 20.2095 14.0191 20.0279 13.7544C19.8465 13.4899 19.5631 12.9283 19.3981 12.5063C19.1391 11.8437 19.0976 11.5692 19.0941 10.491C19.0909 9.485 19.1391 9.09977 19.3428 8.5053C19.4818 8.09964 19.7448 7.54091 19.9274 7.26359C20.11 6.98627 20.4766 6.53363 20.7421 6.25756C21.0075 5.9816 21.4413 5.60567 21.706 5.42219C21.9706 5.23871 22.3662 5.01313 22.585 4.9211C22.8038 4.82897 23.2466 4.67873 23.5691 4.58739C23.9649 4.47516 24.5032 4.43568 25.2252 4.46586C25.9278 4.49536 26.527 4.59317 26.9707 4.75101ZM23.813 5.37294C23.5007 5.44942 22.9939 5.63324 22.6868 5.78155C22.3796 5.92986 21.7952 6.38635 21.3878 6.79598C20.9366 7.24986 20.5302 7.7918 20.3475 8.18338C20.1825 8.53684 19.9861 9.18782 19.9108 9.63002C19.8061 10.2455 19.8043 10.6121 19.9032 11.1936C19.9742 11.6114 20.2109 12.3173 20.4292 12.7625C20.6884 13.291 21.0419 13.7773 21.4481 14.1644C21.7902 14.4904 22.3961 14.9108 22.7944 15.0986C23.1927 15.2865 23.8518 15.4958 24.2592 15.5638C24.7986 15.6538 25.2066 15.653 25.7599 15.5607C26.1778 15.4909 26.8784 15.2551 27.3167 15.0369C27.8351 14.7786 28.3193 14.421 28.7019 14.0133C29.0254 13.6685 29.4427 13.0581 29.6291 12.6567C29.8155 12.2554 30.0247 11.5827 30.0938 11.162C30.1884 10.5869 30.1865 10.2017 30.086 9.61141C30.0125 9.17943 29.8175 8.53684 29.6525 8.18338C29.4703 7.79282 29.0623 7.24816 28.6122 6.79462C28.1663 6.34539 27.6251 5.93292 27.2523 5.75806C26.9116 5.5983 26.3643 5.41073 26.0361 5.34117C25.7079 5.27161 25.2011 5.21896 24.91 5.2243C24.6188 5.22963 24.1251 5.29646 23.813 5.37294ZM26.7914 6.92034C27.1711 7.12413 27.6639 7.49428 27.8866 7.74266C28.1093 7.99116 28.4251 8.48135 28.5884 8.83209C28.8363 9.36472 28.8851 9.62911 28.8851 10.4367C28.8851 11.2988 28.8454 11.4849 28.518 12.1548C28.315 12.5706 27.9437 13.095 27.6869 13.3286C27.4318 13.561 26.9382 13.8855 26.5901 14.05C26.0618 14.2996 25.7989 14.349 25 14.349C24.2011 14.349 23.9382 14.2996 23.4099 14.05C23.0618 13.8855 22.5682 13.561 22.3131 13.3286C22.0579 13.0963 21.6909 12.5825 21.4976 12.187C21.259 11.6987 21.1277 11.2354 21.0886 10.7442C21.0491 10.2491 21.0909 9.81316 21.2207 9.36302C21.3251 9.00128 21.5285 8.51982 21.6726 8.29322C21.8169 8.06662 22.1051 7.72451 22.3132 7.53286C22.5212 7.34132 22.8211 7.10394 22.9796 7.00544C23.1381 6.90695 23.4928 6.74367 23.7679 6.64257C24.1273 6.51049 24.5259 6.47145 25.1846 6.50413C25.9526 6.54226 26.2131 6.60966 26.7914 6.92034ZM25.4916 9.09353C24.6928 9.88283 24.4369 10.2077 24.4369 10.4325C24.4369 10.5958 24.4977 10.7906 24.5721 10.8655C24.6464 10.9404 24.8398 11.0016 25.0018 11.0016C25.2249 11.0016 25.5473 10.7438 26.3306 9.939C26.8994 9.35451 27.3649 8.79283 27.3649 8.69082C27.3649 8.58881 27.2635 8.40317 27.1396 8.27836C27.0158 8.15354 26.8315 8.05142 26.7303 8.05142C26.6291 8.05142 26.0716 8.52039 25.4916 9.09353ZM4.61937 8.7041C4.40383 8.81314 4.11216 9.07628 3.9714 9.2887L3.71531 9.67495L3.74392 22.562L3.77252 35.4491L4.07883 35.5576C4.32151 35.6436 4.43255 35.6228 4.61374 35.4576C4.84088 35.2505 4.84234 35.1674 4.84234 22.7208C4.84234 14.3017 4.88063 10.1204 4.9589 9.97293C5.07185 9.7604 5.25484 9.75347 10.7334 9.75347C15.672 9.75347 16.4232 9.73101 16.6416 9.5768C16.7806 9.47876 16.8919 9.28053 16.8919 9.13109C16.8919 8.98301 16.8123 8.78171 16.715 8.68356C16.5587 8.52618 15.8641 8.5053 10.7747 8.50552C5.51239 8.50564 4.97714 8.52289 4.61937 8.7041ZM33.2879 8.68072C33.1891 8.78035 33.1081 8.98301 33.1081 9.13109C33.1081 9.28053 33.2194 9.47876 33.3584 9.5768C33.5768 9.73101 34.328 9.75347 39.2666 9.75347C44.7452 9.75347 44.9282 9.7604 45.0411 9.97293C45.1194 10.1204 45.1577 14.3047 45.1577 22.7303C45.1577 33.977 45.1759 35.2865 45.3346 35.4465C45.432 35.5445 45.5997 35.6248 45.7072 35.6248C45.8149 35.6248 46.0012 35.5522 46.1215 35.4637C46.3356 35.3059 46.3401 35.0428 46.3401 22.5565C46.3401 10.0142 46.3365 9.80408 46.1149 9.42498C45.991 9.21301 45.7466 8.93217 45.5717 8.80089C45.2595 8.56623 45.1514 8.56147 39.3609 8.53071C34.0869 8.5028 33.4489 8.51846 33.2879 8.68072ZM7.31982 12.7037C7.09764 12.9276 7.09459 13.0819 7.09459 24.0508C7.09459 35.0196 7.09764 35.1739 7.31982 35.3978C7.54313 35.6228 7.69516 35.6248 25 35.6248C42.3048 35.6248 42.4569 35.6228 42.6802 35.3978C42.9024 35.1739 42.9054 35.0196 42.9054 24.0508C42.9054 13.0819 42.9024 12.9276 42.6802 12.7037C42.4622 12.484 42.3048 12.4768 37.7316 12.4768H33.0082L32.833 12.729C32.7366 12.8677 32.6577 13.0464 32.6577 13.1262C32.6577 13.2058 32.759 13.3732 32.8829 13.498C33.1002 13.717 33.2582 13.7249 37.3874 13.7249H41.6667V24.0508V34.3766H25H8.33333V24.0508V13.7249H12.6126C16.7418 13.7249 16.8998 13.717 17.1171 13.498C17.241 13.3732 17.3423 13.2058 17.3423 13.1262C17.3423 13.0464 17.2634 12.8677 17.167 12.729L16.9918 12.4768H12.2684C7.69516 12.4768 7.53784 12.484 7.31982 12.7037ZM13.5778 19.8037C13.43 19.9528 13.4009 20.3213 13.4009 22.0504C13.4009 23.5079 13.4408 24.159 13.536 24.255C13.6104 24.3299 13.8029 24.3912 13.964 24.3912C14.125 24.3912 14.3176 24.3299 14.3919 24.255C14.4872 24.159 14.527 23.5079 14.527 22.0504C14.527 20.3213 14.498 19.9528 14.3501 19.8037C14.2527 19.7056 14.0789 19.6254 13.964 19.6254C13.849 19.6254 13.6752 19.7056 13.5778 19.8037ZM16.8044 19.8021C16.5613 19.9736 16.5541 20.0382 16.5541 22.0488C16.5541 23.5076 16.5939 24.159 16.6892 24.255C16.7834 24.35 17.3899 24.3912 18.6937 24.3912C19.9975 24.3912 20.6039 24.35 20.6982 24.255C20.7935 24.159 20.8333 23.5076 20.8333 22.0488C20.8333 20.0382 20.8261 19.9736 20.583 19.8021C20.3843 19.6618 19.9949 19.6254 18.6937 19.6254C17.3925 19.6254 17.003 19.6618 16.8044 19.8021ZM23.1107 19.8021C22.8676 19.9736 22.8604 20.0382 22.8604 22.0488C22.8604 23.5076 22.9002 24.159 22.9955 24.255C23.0898 24.35 23.6962 24.3912 25 24.3912C26.3038 24.3912 26.9102 24.35 27.0045 24.255C27.0998 24.159 27.1396 23.5076 27.1396 22.0488C27.1396 20.0382 27.1324 19.9736 26.8893 19.8021C26.6907 19.6618 26.3012 19.6254 25 19.6254C23.6988 19.6254 23.3093 19.6618 23.1107 19.8021ZM29.3436 19.8037C29.1957 19.9528 29.1667 20.3213 29.1667 22.0504C29.1667 23.5079 29.2065 24.159 29.3018 24.255C29.3761 24.3299 29.5687 24.3912 29.7297 24.3912C29.8908 24.3912 30.0833 24.3299 30.1577 24.255C30.2529 24.159 30.2928 23.5079 30.2928 22.0504C30.2928 20.3213 30.2637 19.9528 30.1159 19.8037C30.0185 19.7056 29.8447 19.6254 29.7297 19.6254C29.6148 19.6254 29.441 19.7056 29.3436 19.8037ZM32.5702 19.8021C32.327 19.9736 32.3198 20.0382 32.3198 22.0488C32.3198 23.5076 32.3597 24.159 32.455 24.255C32.5492 24.35 33.1556 24.3912 34.4595 24.3912C35.7633 24.3912 36.3697 24.35 36.464 24.255C36.5592 24.159 36.5991 23.5076 36.5991 22.0488C36.5991 20.0382 36.5919 19.9736 36.3488 19.8021C36.1501 19.6618 35.7607 19.6254 34.4595 19.6254C33.1582 19.6254 32.7688 19.6618 32.5702 19.8021ZM19.7072 22.065V23.2565H18.6937H17.6802V22.065V20.8736H18.6937H19.7072V22.065ZM26.0135 22.065V23.2565H25H23.9865V22.065V20.8736H25H26.0135V22.065ZM35.473 22.065V23.2565H34.4595H33.4459V22.065V20.8736H34.4595H35.473V22.065ZM13.6512 26.3834C13.4081 26.5549 13.4009 26.6195 13.4009 28.6301C13.4009 30.0889 13.4408 30.7403 13.536 30.8363C13.6303 30.9313 14.2367 30.9725 15.5405 30.9725C16.8444 30.9725 17.4508 30.9313 17.545 30.8363C17.6403 30.7403 17.6802 30.0889 17.6802 28.6301C17.6802 26.6195 17.673 26.5549 17.4298 26.3834C17.2312 26.2431 16.8418 26.2067 15.5405 26.2067C14.2393 26.2067 13.8499 26.2431 13.6512 26.3834ZM19.9575 26.3834C19.7144 26.5549 19.7072 26.6195 19.7072 28.6301C19.7072 30.0889 19.7471 30.7403 19.8423 30.8363C19.9366 30.9313 20.543 30.9725 21.8468 30.9725C23.1507 30.9725 23.7571 30.9313 23.8514 30.8363C23.9466 30.7403 23.9865 30.0889 23.9865 28.6301C23.9865 26.6195 23.9793 26.5549 23.7361 26.3834C23.5375 26.2431 23.1481 26.2067 21.8468 26.2067C20.5456 26.2067 20.1562 26.2431 19.9575 26.3834ZM26.1904 26.385C26.0426 26.5341 26.0135 26.9026 26.0135 28.6317C26.0135 30.0892 26.0534 30.7403 26.1486 30.8363C26.223 30.9112 26.4155 30.9725 26.5766 30.9725C26.7376 30.9725 26.9302 30.9112 27.0045 30.8363C27.0998 30.7403 27.1396 30.0892 27.1396 28.6317C27.1396 26.9026 27.1106 26.5341 26.9627 26.385C26.8653 26.2869 26.6916 26.2067 26.5766 26.2067C26.4616 26.2067 26.2878 26.2869 26.1904 26.385ZM29.417 26.3834C29.1739 26.5549 29.1667 26.6195 29.1667 28.6301C29.1667 30.0889 29.2065 30.7403 29.3018 30.8363C29.3961 30.9313 30.0025 30.9725 31.3063 30.9725C32.6101 30.9725 33.2166 30.9313 33.3108 30.8363C33.4061 30.7403 33.4459 30.0889 33.4459 28.6301C33.4459 26.6195 33.4387 26.5549 33.1956 26.3834C32.997 26.2431 32.6075 26.2067 31.3063 26.2067C30.0051 26.2067 29.6157 26.2431 29.417 26.3834ZM35.6499 26.385C35.502 26.5341 35.473 26.9026 35.473 28.6317C35.473 30.0892 35.5128 30.7403 35.6081 30.8363C35.6824 30.9112 35.875 30.9725 36.036 30.9725C36.1971 30.9725 36.3896 30.9112 36.464 30.8363C36.5592 30.7403 36.5991 30.0892 36.5991 28.6317C36.5991 26.9026 36.57 26.5341 36.4222 26.385C36.3248 26.2869 36.151 26.2067 36.036 26.2067C35.9211 26.2067 35.7473 26.2869 35.6499 26.385ZM16.5541 28.6463V29.8378H15.5405H14.527V28.6463V27.4549H15.5405H16.5541V28.6463ZM22.8604 28.6463V29.8378H21.8468H20.8333V28.6463V27.4549H21.8468H22.8604V28.6463ZM32.3198 28.6463V29.8378H31.3063H30.2928V28.6463V27.4549H31.3063H32.3198V28.6463ZM0.903153 37.6391C0.687613 37.7481 0.396171 38.0109 0.255631 38.223C0.0198199 38.5786 0 38.7335 0 40.2203C0 41.7071 0.0198199 41.862 0.255631 42.2176C0.396171 42.4297 0.687613 42.6925 0.903153 42.8015C1.27252 42.9885 2.65642 43 25 43C47.3436 43 48.7275 42.9885 49.0968 42.8015C49.3124 42.6925 49.6038 42.4297 49.7444 42.2176C49.9802 41.862 50 41.7071 50 40.2203C50 38.7335 49.9802 38.5786 49.7444 38.223C49.6038 38.0109 49.3124 37.7481 49.0968 37.6391C48.7275 37.4521 47.3436 37.4406 25 37.4406C2.65642 37.4406 1.27252 37.4521 0.903153 37.6391ZM48.7573 38.9079C48.8214 39.0286 48.8739 39.6193 48.8739 40.2203C48.8739 40.8214 48.8214 41.412 48.7573 41.5327C48.6426 41.7486 48.2577 41.7522 25 41.7522C1.74234 41.7522 1.35743 41.7486 1.24268 41.5327C1.1786 41.412 1.12613 40.8214 1.12613 40.2203C1.12613 39.6193 1.1786 39.0286 1.24268 38.9079C1.35743 38.692 1.74234 38.6885 25 38.6885C48.2577 38.6885 48.6426 38.692 48.7573 38.9079Z" fill="#2C3E50"/>
</svg>
