<svg width="49" height="58" viewBox="0 0 49 58" fill="none" xmlns="http://www.w3.org/2000/svg">
<path fill-rule="evenodd" clip-rule="evenodd" d="M24.5676 0.185955C24.409 0.344686 24.3816 0.786551 24.3816 3.19592C24.3816 5.60529 24.409 6.04715 24.5676 6.20588C24.67 6.30815 24.9058 6.39184 25.0918 6.39184C25.2777 6.39184 25.5136 6.30815 25.616 6.20588C25.7746 6.04715 25.8019 5.60529 25.8019 3.19592C25.8019 0.786551 25.7746 0.344686 25.616 0.185955C25.5136 0.0836857 25.2777 0 25.0918 0C24.9058 0 24.67 0.0836857 24.5676 0.185955ZM6.44516 6.44569C6.28537 6.60549 6.15459 6.79452 6.15459 6.86578C6.15459 6.93715 6.22975 7.13921 6.32171 7.3151C6.41356 7.49088 7.39202 8.52683 8.49594 9.61735C10.0683 11.1704 10.5705 11.6 10.8143 11.6C10.9856 11.6 11.2321 11.4935 11.3623 11.3633C11.4925 11.2331 11.599 10.9865 11.599 10.8152C11.599 10.5714 11.1695 10.0692 9.61655 8.49664C8.52612 7.39263 7.49025 6.41409 7.31449 6.32224C7.13861 6.23027 6.93658 6.1551 6.86521 6.1551C6.79396 6.1551 6.60494 6.2859 6.44516 6.44569ZM41.6027 6.37929C41.4074 6.50215 40.3822 7.48011 39.3243 8.55263C37.8329 10.0645 37.401 10.5715 37.401 10.8099C37.401 10.9789 37.5175 11.226 37.66 11.3586C37.8024 11.4913 38.0491 11.6 38.2079 11.6C38.423 11.6 39.0109 11.0923 40.5041 9.61735C41.608 8.52683 42.5864 7.49088 42.6783 7.3151C42.7703 7.13921 42.8454 6.93715 42.8454 6.86578C42.8454 6.79452 42.7146 6.60549 42.5548 6.44569C42.3951 6.2859 42.1954 6.15534 42.111 6.15558C42.0267 6.15581 41.7979 6.25654 41.6027 6.37929ZM21.9553 9.51768C21.4345 9.60504 20.6724 9.76531 20.2619 9.87385C19.8513 9.98239 19.1323 10.2088 18.664 10.3771C18.1958 10.5453 17.3867 10.8961 16.8659 11.1566C16.3452 11.417 15.4466 11.9532 14.869 12.3481C14.2914 12.743 13.3988 13.4613 12.8853 13.9444C12.3719 14.4274 11.6394 15.211 11.2577 15.6856C10.8759 16.1602 10.2872 17.0061 9.94937 17.5654C9.61169 18.1245 9.11921 19.0993 8.85515 19.7312C8.5911 20.3633 8.22549 21.4724 8.04286 22.1961C7.86012 22.9197 7.65288 24.1312 7.58245 24.8882C7.49286 25.8514 7.49085 26.6838 7.57606 27.6619C7.64293 28.4304 7.82615 29.5942 7.98321 30.2481C8.14015 30.9019 8.39817 31.7808 8.55642 32.2011C8.71466 32.6214 9.07139 33.4181 9.34894 33.9714C9.62661 34.5248 10.1787 35.4528 10.5758 36.0337C10.9729 36.6147 11.9405 37.7599 12.7259 38.5786C13.5115 39.3974 14.3301 40.3244 14.5454 40.6387C14.7607 40.9529 15.1436 41.651 15.3962 42.19C15.6488 42.7291 15.9712 43.6172 16.1127 44.1637C16.3553 45.1008 16.3739 45.5049 16.4404 51.2931L16.5109 57.429L16.843 57.7145L17.1751 58H24.5157H31.8564L32.2024 57.654L32.5483 57.308V52.0269C32.5483 49.1215 32.6045 46.2287 32.6734 45.5964C32.7487 44.9037 32.9526 43.9926 33.1864 43.3037C33.3998 42.675 33.8095 41.7489 34.097 41.2457C34.4556 40.6178 35.1078 39.8155 36.1763 38.6878C37.0325 37.7842 38.051 36.5797 38.4397 36.0111C38.8282 35.4426 39.3734 34.5248 39.6511 33.9714C39.9286 33.4181 40.2853 32.6214 40.4436 32.2011C40.6018 31.7808 40.8597 30.9019 41.0168 30.2481C41.1738 29.5942 41.3556 28.4477 41.4206 27.7004C41.5005 26.783 41.4995 25.886 41.4171 24.9383C41.3501 24.1664 41.1445 22.9376 40.9601 22.2076C40.7758 21.4776 40.4089 20.3633 40.1448 19.7312C39.8808 19.0993 39.3861 18.1207 39.0454 17.5568C38.7049 16.9929 38.1886 16.2343 37.8983 15.8709C37.608 15.5075 37.0444 14.8724 36.646 14.4596C36.2475 14.0468 35.4954 13.3788 34.9746 12.9753C34.4539 12.5718 33.8099 12.1021 33.5436 11.9317C33.2774 11.7611 32.6197 11.4004 32.0821 11.1302C31.5445 10.8598 30.564 10.4592 29.9031 10.2397C29.2423 10.0203 28.3022 9.75382 27.814 9.64765C27.2661 9.52845 26.1561 9.43624 24.9143 9.40677C23.5681 9.37481 22.5888 9.41151 21.9553 9.51768ZM26.9075 11.0668C27.5482 11.1633 28.6219 11.4262 29.2936 11.651C29.9654 11.8759 30.9059 12.2552 31.3837 12.4938C31.8615 12.7325 32.7051 13.2284 33.2585 13.5956C33.8118 13.9628 34.7721 14.7693 35.3926 15.3878C36.0277 16.0208 36.8463 17 37.2658 17.6283C37.6756 18.2423 38.1624 19.0447 38.3476 19.4117C38.5328 19.7786 38.8766 20.6315 39.1118 21.3071C39.3469 21.9826 39.6267 23.0178 39.7336 23.6074C39.8533 24.2686 39.9278 25.3149 39.9278 26.3367C39.9278 27.3586 39.8533 28.4049 39.7336 29.066C39.6267 29.6556 39.3469 30.6909 39.1118 31.3664C38.8766 32.0419 38.5328 32.8949 38.3476 33.2618C38.1624 33.6288 37.6901 34.4083 37.2984 34.9942C36.9065 35.5802 35.8771 36.8083 35.0109 37.7234C33.9869 38.8053 33.2335 39.7241 32.857 40.3498C32.5385 40.8791 32.1035 41.7778 31.8904 42.3469C31.6773 42.916 31.4186 43.7922 31.3155 44.294C31.2124 44.7958 31.128 45.3951 31.128 45.6256V46.0449H24.5172H17.9063L17.8358 45.2459C17.7969 44.8065 17.6521 44.0208 17.5138 43.5C17.3756 42.9792 17.0602 42.1207 16.8129 41.592C16.5656 41.0635 16.1328 40.2912 15.8513 39.8757C15.5697 39.4604 14.6878 38.4417 13.8916 37.6122C13.0953 36.7826 12.1166 35.6145 11.7166 35.0164C11.3165 34.4183 10.8395 33.6322 10.6567 33.2696C10.4738 32.907 10.1589 32.1413 9.9567 31.5683C9.75467 30.9953 9.51334 30.1963 9.42066 29.7928C9.32787 29.3893 9.18821 28.5265 9.11033 27.8755C9.02535 27.1651 9.00061 26.2207 9.04831 25.5135C9.09198 24.8653 9.2062 23.9211 9.30219 23.4151C9.39818 22.9092 9.61004 22.0866 9.77313 21.5871C9.93611 21.0876 10.255 20.2775 10.4817 19.7868C10.7084 19.296 11.2442 18.3682 11.6724 17.725C12.1006 17.0818 12.8851 16.1137 13.4157 15.5736C13.9463 15.0334 14.811 14.2745 15.3374 13.8872C15.8637 13.4998 16.7691 12.9386 17.3494 12.6401C17.9297 12.3415 18.8573 11.9383 19.4106 11.7441C19.9639 11.5498 20.8428 11.3068 21.3635 11.2041C21.8843 11.1013 22.4702 10.9966 22.6655 10.9714C22.8607 10.946 23.633 10.9176 24.3816 10.9083C25.1303 10.8989 26.267 10.9702 26.9075 11.0668ZM20.8011 14.9648C20.5568 15.0519 20.1649 15.2697 19.9302 15.4488C19.6926 15.6302 19.3786 16.0427 19.2215 16.38C19.0664 16.7131 18.939 17.0964 18.9384 17.2316C18.9374 17.4346 18.8781 17.4687 18.5985 17.4277C18.4122 17.4004 17.9196 17.4644 17.5037 17.5702C17.0879 17.6759 16.5079 17.9257 16.215 18.1251C15.922 18.3247 15.5031 18.7225 15.2839 19.0093C15.0647 19.296 14.8026 19.757 14.7017 20.0337C14.6006 20.3104 14.5084 20.883 14.4968 21.3061C14.4762 22.0502 14.4575 22.094 13.9289 22.6357C13.5323 23.0422 13.3292 23.3785 13.189 23.8605C13.0583 24.3105 13.0218 24.7027 13.0761 25.0758C13.1203 25.3787 13.2834 25.856 13.4385 26.1367L13.7207 26.6467L13.3669 27.1352C13.1724 27.4038 12.9281 27.9162 12.8242 28.2737C12.7006 28.699 12.6554 29.1748 12.6935 29.6497C12.7256 30.049 12.8677 30.6388 13.0094 30.9603C13.1512 31.2819 13.5126 31.7949 13.8128 32.1005C14.1128 32.406 14.5031 32.716 14.6799 32.7892C14.9787 32.913 15.0051 32.982 15.0565 33.7725C15.0868 34.2399 15.1954 34.7822 15.2981 34.9776C15.4006 35.1729 15.6621 35.5139 15.8793 35.7353C16.0965 35.9567 16.5405 36.2625 16.8659 36.4148C17.2455 36.5923 17.6778 36.692 18.0714 36.6927C18.409 36.6934 18.8314 36.6382 19.0102 36.5702C19.27 36.4715 19.4496 36.4956 19.9022 36.6903C20.2138 36.8244 20.705 36.9666 20.9938 37.0061C21.3436 37.0541 21.738 37.0091 22.177 36.871C22.5392 36.7571 23.0455 36.484 23.3022 36.2643C23.5589 36.0445 23.9068 35.5881 24.0753 35.2499L24.3816 34.6351V29.6954C24.3816 25.3626 24.3588 24.7329 24.1957 24.5696C24.0933 24.4674 23.867 24.3845 23.6927 24.3854C23.5182 24.3865 23.2957 24.4378 23.1981 24.4994C23.0466 24.5951 23.0119 25.3275 22.9614 29.4986L22.9022 34.3857L22.6182 34.7838C22.4621 35.0028 22.1576 35.2557 21.9415 35.346C21.7255 35.4363 21.3903 35.5102 21.1968 35.5102C21.0032 35.5102 20.8153 35.4624 20.7792 35.4038C20.743 35.3453 20.8186 35.0656 20.9471 34.7824C21.0757 34.4991 21.182 34.0409 21.1834 33.7643C21.1852 33.4165 21.113 33.1882 20.9493 33.0245C20.8191 32.8943 20.612 32.7878 20.489 32.7878C20.366 32.7878 20.1527 32.881 20.0152 32.9949C19.8652 33.1191 19.7227 33.4333 19.6595 33.7791C19.5877 34.1719 19.4393 34.4708 19.1945 34.7156C18.9051 35.0051 18.7104 35.0854 18.195 35.1282C17.6078 35.1769 17.5194 35.15 17.1246 34.8033C16.8784 34.5872 16.6426 34.2396 16.5736 33.9913C16.5073 33.7524 16.4528 33.4972 16.4524 33.424C16.452 33.3507 16.6125 33.2586 16.8092 33.2193C17.0741 33.1663 17.2274 33.2084 17.401 33.3821C17.5298 33.5109 17.7459 33.6163 17.8811 33.6163C18.0163 33.6163 18.2833 33.46 18.4743 33.2689C18.6653 33.0779 18.8529 32.765 18.8913 32.5737C18.9544 32.2579 19.0146 32.2197 19.5489 32.1564C19.8725 32.1181 20.32 31.9737 20.5434 31.8356C20.7669 31.6976 20.9808 31.4607 21.0188 31.3095C21.0567 31.1581 21.0264 30.9198 20.9516 30.7799C20.8767 30.6399 20.6991 30.4812 20.5569 30.4272C20.393 30.3649 20.1523 30.389 19.8992 30.4931C19.6797 30.5833 19.3601 30.6551 19.1891 30.6526C18.9631 30.6493 18.7898 30.5207 18.5559 30.1823C18.3787 29.926 18.0986 29.6825 17.9336 29.6411C17.7439 29.5935 17.525 29.6369 17.3385 29.7591C17.1301 29.8956 17.0435 30.059 17.0435 30.3157C17.0435 30.5155 17.15 30.8145 17.2802 30.9799C17.4104 31.1455 17.5161 31.4469 17.5151 31.6497C17.5141 31.8524 17.4671 32.0913 17.4106 32.1805C17.3267 32.3129 17.2869 32.3054 17.194 32.1393C17.126 32.0177 16.7759 31.8658 16.3221 31.761C15.9051 31.6649 15.3905 31.4791 15.1783 31.3481C14.9662 31.2171 14.6561 30.8771 14.4893 30.5924C14.2672 30.2134 14.186 29.9072 14.1861 29.4486C14.1861 29.1043 14.2379 28.6863 14.3013 28.5199C14.3646 28.3535 14.5614 28.0448 14.7387 27.8341C14.9161 27.6233 15.2654 27.3466 15.515 27.2193C15.7646 27.0919 16.1455 26.9878 16.3615 26.9878C16.5774 26.9878 16.8724 26.9048 17.0171 26.8035C17.1991 26.676 17.2802 26.4982 17.2802 26.2262C17.2802 26.0099 17.1975 25.7643 17.0963 25.6804C16.9351 25.5466 16.9566 25.5091 17.2697 25.3774C17.4886 25.2854 17.6566 25.1093 17.7033 24.923C17.7498 24.7379 17.7127 24.5146 17.6089 24.3533C17.4822 24.1564 17.4659 23.9826 17.5457 23.6812C17.605 23.4576 17.6202 23.0976 17.5796 22.8812C17.5366 22.6516 17.3859 22.4094 17.2175 22.2991C16.988 22.1487 16.8554 22.1359 16.5674 22.2363C16.2362 22.3518 16.196 22.3372 16.092 22.0633C16.0294 21.8988 15.9794 21.5679 15.9809 21.328C15.9823 21.0881 16.0804 20.6783 16.199 20.4173C16.3176 20.1564 16.6047 19.7759 16.8372 19.5717C17.0696 19.3676 17.4575 19.1354 17.6991 19.0556C17.9557 18.971 18.3622 18.9414 18.6769 18.9845C18.9732 19.0251 19.3956 19.1646 19.6157 19.2945C19.8359 19.4243 20.1461 19.5306 20.3051 19.5306C20.4641 19.5306 20.7007 19.4241 20.8309 19.2939C20.9611 19.1637 21.0676 18.9482 21.0676 18.8151C21.0676 18.6819 20.9345 18.4397 20.7717 18.277C20.5682 18.0734 20.4758 17.851 20.4758 17.5644C20.4758 17.3353 20.5306 17.0453 20.5978 16.92C20.6647 16.7947 20.8752 16.6118 21.0653 16.5134C21.2553 16.4152 21.5335 16.3349 21.6831 16.3352C21.8328 16.3354 22.1252 16.4391 22.3328 16.5657C22.5863 16.7203 22.7512 16.9435 22.8351 17.2459C22.9038 17.4934 22.9603 18.3179 22.9606 19.0783C22.9612 20.1765 22.9996 20.4989 23.1473 20.6467C23.2497 20.749 23.4856 20.8327 23.6715 20.8327C23.8574 20.8327 24.0933 20.749 24.1957 20.6467C24.3479 20.4944 24.3814 20.146 24.3805 18.7232C24.3794 17.1424 24.3538 16.931 24.0973 16.38C23.9403 16.0427 23.6263 15.6302 23.3886 15.4488C23.1539 15.2697 22.762 15.0519 22.5177 14.9648C22.2735 14.8776 21.8873 14.8063 21.6594 14.8063C21.4316 14.8063 21.0454 14.8776 20.8011 14.9648ZM26.4598 14.9725C26.2032 15.064 25.857 15.2398 25.6904 15.3631C25.5239 15.4866 25.2279 15.8135 25.0326 16.0897L24.6775 16.5917L24.6457 25.6014L24.614 34.6111L24.9192 35.2351C25.0872 35.5784 25.4463 36.049 25.7172 36.2809C25.9952 36.5189 26.4897 36.784 26.8524 36.8894C27.2547 37.0064 27.6887 37.0497 28.013 37.0052C28.298 36.9661 28.7862 36.8244 29.0978 36.6903C29.5504 36.4956 29.73 36.4715 29.9898 36.5702C30.1686 36.6382 30.591 36.6934 30.9286 36.6927C31.3234 36.692 31.7533 36.5926 32.1341 36.4138C32.4595 36.261 32.8727 35.9876 33.0522 35.8061C33.2317 35.6247 33.493 35.2909 33.6331 35.0643C33.8109 34.7764 33.9044 34.3918 33.9432 33.7874C33.995 32.9808 34.0204 32.9133 34.3201 32.7892C34.4969 32.716 34.8872 32.406 35.1872 32.1005C35.4874 31.7949 35.8488 31.2819 35.9906 30.9603C36.1323 30.6388 36.2744 30.049 36.3065 29.6497C36.3446 29.1748 36.2994 28.699 36.1758 28.2737C36.0719 27.9162 35.8304 27.4076 35.6391 27.1436L35.2915 26.6635L35.6064 26.0268C35.8488 25.537 35.9189 25.2264 35.9101 24.6798C35.9027 24.2058 35.8099 23.7827 35.6315 23.4086C35.4844 23.1001 35.1741 22.6807 34.9417 22.4768C34.5352 22.1198 34.5185 22.0734 34.4962 21.2359C34.4786 20.5727 34.4001 20.2168 34.1663 19.7387C33.9975 19.3937 33.6842 18.9318 33.4702 18.7121C33.2561 18.4925 32.8945 18.1894 32.6667 18.0385C32.4388 17.8877 31.9121 17.6773 31.4963 17.5712C31.0804 17.4649 30.5878 17.4004 30.4015 17.4277C30.1219 17.4687 30.0626 17.4346 30.0616 17.2316C30.061 17.0964 29.9336 16.7131 29.7785 16.38C29.6214 16.0427 29.3074 15.6302 29.0698 15.4488C28.8351 15.2697 28.4432 15.0519 28.1989 14.9648C27.9546 14.8776 27.5684 14.8063 27.3406 14.8063C27.1127 14.8063 26.7164 14.8811 26.4598 14.9725ZM27.8514 16.4669C27.9936 16.5396 28.2019 16.7128 28.3144 16.8516C28.4269 16.9904 28.5201 17.2828 28.5215 17.5013C28.5232 17.7551 28.4174 18.0253 28.2283 18.2501C28.0655 18.4435 27.9324 18.7043 27.9324 18.8295C27.9324 18.9548 28.0389 19.1637 28.1691 19.2939C28.2993 19.4241 28.5359 19.5306 28.6949 19.5306C28.8539 19.5306 29.1641 19.4243 29.3843 19.2945C29.6044 19.1646 30.0268 19.0251 30.3231 18.9845C30.6378 18.9414 31.0443 18.971 31.3009 19.0556C31.5425 19.1354 31.9304 19.3676 32.1628 19.5717C32.3953 19.7759 32.6824 20.1564 32.801 20.4173C32.9196 20.6783 33.0177 21.0881 33.0191 21.328C33.0206 21.5679 32.9706 21.8988 32.908 22.0633C32.804 22.3372 32.7638 22.3518 32.4326 22.2363C32.1446 22.1359 32.012 22.1487 31.7825 22.2991C31.6141 22.4094 31.4634 22.6516 31.4204 22.8812C31.3798 23.0976 31.395 23.4576 31.4543 23.6812C31.5342 23.9832 31.5178 24.1564 31.3901 24.3548C31.2483 24.5751 31.244 24.684 31.3657 24.9778C31.4524 25.1873 31.6308 25.3632 31.7995 25.4055C32.0613 25.4712 32.0701 25.4948 31.9028 25.6797C31.8022 25.7909 31.7198 26.0478 31.7198 26.2506C31.7198 26.4974 31.8068 26.6801 31.9829 26.8035C32.1275 26.9048 32.4226 26.9878 32.6385 26.9878C32.8545 26.9878 33.2287 27.0894 33.4703 27.2136C33.7118 27.3379 34.0525 27.591 34.2273 27.7758C34.4023 27.9609 34.6051 28.2705 34.6782 28.4638C34.7513 28.6572 34.8131 29.0692 34.8154 29.3795C34.8182 29.728 34.7195 30.151 34.5574 30.4857C34.4047 30.8011 34.1154 31.1455 33.8655 31.309C33.6293 31.4637 33.0949 31.668 32.6779 31.763C32.2222 31.867 31.8744 32.0172 31.806 32.1393C31.7131 32.3054 31.6733 32.3129 31.5894 32.1805C31.5329 32.0913 31.4863 31.8586 31.4857 31.6633C31.4851 31.468 31.5904 31.1484 31.7198 30.9531C31.8492 30.7578 31.9553 30.4527 31.9557 30.2752C31.9563 30.0612 31.8571 29.8873 31.6615 29.7591C31.475 29.6369 31.2561 29.5935 31.0664 29.6411C30.9014 29.6825 30.6213 29.926 30.4441 30.1823C30.2102 30.5207 30.0369 30.6493 29.8109 30.6526C29.6399 30.6551 29.3203 30.5833 29.1008 30.4931C28.8409 30.3862 28.6085 30.3643 28.4344 30.4304C28.2874 30.4862 28.1058 30.6666 28.0307 30.8313C27.9324 31.0472 27.9296 31.2079 28.0207 31.4078C28.0901 31.5603 28.3495 31.781 28.5971 31.8986C28.8447 32.0161 29.2704 32.1373 29.5431 32.1681C29.9795 32.2173 30.0472 32.2658 30.1086 32.5728C30.147 32.7646 30.3347 33.0779 30.5257 33.2689C30.7167 33.46 30.9765 33.6163 31.1029 33.6163C31.2293 33.6163 31.4617 33.515 31.6191 33.3911C31.8072 33.2432 32.0157 33.187 32.2268 33.2274C32.4037 33.2612 32.548 33.3492 32.5476 33.423C32.5472 33.4968 32.4927 33.7524 32.4264 33.9913C32.3574 34.2396 32.1216 34.5872 31.8754 34.8033C31.4788 35.1517 31.394 35.177 30.7937 35.1273C30.2345 35.0809 30.0885 35.0146 29.7638 34.6603C29.5024 34.3751 29.3598 34.0759 29.3022 33.6929C29.2434 33.3008 29.1384 33.0854 28.9434 32.9576C28.7684 32.843 28.5536 32.8055 28.3561 32.8551C28.1847 32.8982 27.9926 33.0303 27.9293 33.1487C27.8659 33.2671 27.8152 33.5673 27.8166 33.8157C27.818 34.0641 27.9243 34.4991 28.0529 34.7824C28.1814 35.0656 28.257 35.3453 28.2208 35.4038C28.1847 35.4624 27.9968 35.5102 27.8032 35.5102C27.6097 35.5102 27.2745 35.4363 27.0585 35.346C26.8424 35.2557 26.5379 35.0028 26.3818 34.7838L26.0978 34.3857L26.0615 26.0408C26.0359 20.1688 26.0642 17.5628 26.1568 17.2464C26.2436 16.9491 26.4164 16.7187 26.6664 16.5662C26.8745 16.4393 27.168 16.3354 27.3188 16.3352C27.4695 16.3349 27.7091 16.3942 27.8514 16.4669ZM18.6413 19.6721C18.5111 19.7459 18.3654 19.8642 18.3176 19.9348C18.2698 20.0055 18.2299 20.2015 18.2288 20.3704C18.2279 20.5393 18.3202 20.7619 18.4342 20.8647C18.5482 20.9677 18.8543 21.0691 19.1147 21.0902L19.5882 21.1286V21.8181C19.5882 22.3639 19.6361 22.5428 19.8179 22.6762C19.9443 22.769 20.1614 22.8449 20.3003 22.8449C20.4393 22.8449 20.6626 22.7251 20.7967 22.5786C20.9307 22.432 21.0765 22.1933 21.1205 22.048C21.1646 21.9027 21.3877 21.695 21.6165 21.5864C21.8451 21.4779 22.114 21.2643 22.2139 21.1118C22.3248 20.9425 22.3667 20.7193 22.3215 20.5391C22.2808 20.3767 22.1101 20.1538 21.9423 20.0439C21.6543 19.8552 21.6143 19.8561 21.2343 20.0609C20.8623 20.2612 20.8151 20.2632 20.6196 20.0863C20.5033 19.981 20.2119 19.8128 19.9724 19.7127C19.7327 19.6125 19.3884 19.5323 19.2073 19.5342C19.0262 19.5362 18.7715 19.5982 18.6413 19.6721ZM29.0011 19.718C28.7752 19.816 28.4955 19.9821 28.3795 20.0871C28.1852 20.263 28.1371 20.2608 27.7657 20.0609C27.3857 19.8561 27.3457 19.8552 27.0577 20.0439C26.8899 20.1538 26.7192 20.3767 26.6785 20.5391C26.6333 20.7193 26.6752 20.9425 26.7861 21.1118C26.886 21.2643 27.1549 21.4779 27.3835 21.5864C27.6123 21.695 27.8354 21.9027 27.8795 22.048C27.9235 22.1933 28.0693 22.432 28.2033 22.5786C28.3374 22.7251 28.5607 22.8449 28.6997 22.8449C28.8386 22.8449 29.0557 22.769 29.1821 22.6762C29.3639 22.5428 29.4118 22.3639 29.4118 21.8181V21.1286L29.8853 21.0902C30.1457 21.0691 30.452 20.9677 30.5658 20.8647C30.6797 20.7619 30.7721 20.5393 30.7712 20.3704C30.7701 20.2015 30.7302 20.0047 30.6824 19.9331C30.6346 19.8614 30.4791 19.7415 30.3369 19.6667C30.1947 19.5918 29.9283 19.5327 29.7451 19.5352C29.5618 19.5378 29.227 19.6201 29.0011 19.718ZM15.5666 23.6735C15.7021 23.6735 15.702 23.7225 15.5663 23.9842C15.4668 24.1759 15.4407 24.3912 15.4981 24.5464C15.5492 24.6847 15.8501 24.931 16.1666 25.0939L16.7421 25.3898L16.2714 25.4602C16.0126 25.499 15.6109 25.5697 15.3789 25.6173C15.061 25.6825 14.9188 25.6578 14.8021 25.5172C14.7169 25.4145 14.6243 25.1042 14.5961 24.8274C14.5584 24.4567 14.6102 24.2206 14.793 23.929C14.9584 23.6653 15.1018 23.5568 15.2235 23.6035C15.3237 23.642 15.4782 23.6735 15.5666 23.6735ZM34.2411 24.0357C34.3808 24.3024 34.4355 24.5977 34.3997 24.8913C34.3696 25.138 34.277 25.4218 34.194 25.5219C34.0813 25.6577 33.9359 25.6818 33.6211 25.6173C33.3891 25.5697 32.9874 25.499 32.7286 25.4602L32.2579 25.3898L32.8469 25.0877C33.3495 24.8299 33.4416 24.7288 33.4736 24.3993C33.4943 24.1869 33.4513 23.9407 33.378 23.8524C33.2731 23.7261 33.3031 23.6808 33.5179 23.6404C33.6681 23.6122 33.8443 23.5979 33.9094 23.6087C33.9745 23.6195 34.1238 23.8116 34.2411 24.0357ZM0.18594 23.9778C0.0836786 24.0802 0 24.3161 0 24.502C0 24.688 0.0836786 24.9239 0.18594 25.0263C0.344657 25.1849 0.786486 25.2122 3.19565 25.2122C5.60482 25.2122 6.04665 25.1849 6.20536 25.0263C6.30763 24.9239 6.3913 24.688 6.3913 24.502C6.3913 24.3161 6.30763 24.0802 6.20536 23.9778C6.04665 23.8192 5.60482 23.7918 3.19565 23.7918C0.786486 23.7918 0.344657 23.8192 0.18594 23.9778ZM42.7946 23.9778C42.6924 24.0802 42.6087 24.3161 42.6087 24.502C42.6087 24.688 42.6924 24.9239 42.7946 25.0263C42.9534 25.1849 43.3952 25.2122 45.8043 25.2122C48.2135 25.2122 48.6553 25.1849 48.8141 25.0263C48.9163 24.9239 49 24.688 49 24.502C49 24.3161 48.9163 24.0802 48.8141 23.9778C48.6553 23.8192 48.2135 23.7918 45.8043 23.7918C43.3952 23.7918 42.9534 23.8192 42.7946 23.9778ZM20.1208 24.3013C19.8747 24.4268 19.8278 24.531 19.8422 24.9209C19.8516 25.1789 19.8958 25.5258 19.9403 25.692C20.0069 25.9413 19.9385 26.0769 19.5497 26.4658C19.2549 26.7605 19.0261 27.1311 18.939 27.4547C18.8623 27.7395 18.8328 28.1496 18.8735 28.3664C18.9141 28.5831 19.0481 28.8143 19.1712 28.8802C19.2943 28.9461 19.5234 29 19.6804 29C19.8373 29 20.0539 28.9026 20.1616 28.7835C20.2693 28.6644 20.3575 28.4101 20.3575 28.2181C20.3575 28.0261 20.4405 27.7506 20.5418 27.606C20.6704 27.4222 20.8468 27.3429 21.1266 27.3429C21.3468 27.3429 21.56 27.3961 21.6002 27.4612C21.6405 27.5263 21.8218 27.5796 22.0031 27.5796C22.1845 27.5796 22.4247 27.478 22.537 27.354C22.6674 27.2099 22.7276 26.9849 22.7033 26.7326C22.6708 26.3926 22.586 26.2973 22.1033 26.0579C21.7878 25.9014 21.5411 25.697 21.5411 25.5922C21.5411 25.4895 21.4337 25.1837 21.3026 24.9128C21.1714 24.6417 20.9293 24.3586 20.7644 24.2835C20.5995 24.2084 20.4539 24.1478 20.4407 24.1487C20.4274 24.1497 20.2835 24.2183 20.1208 24.3013ZM28.2009 24.2916C28.0558 24.3609 27.8294 24.6401 27.6979 24.9116C27.5665 25.1831 27.4589 25.4895 27.4589 25.5922C27.4589 25.697 27.2122 25.9014 26.8967 26.0579C26.414 26.2973 26.3292 26.3926 26.2967 26.7326C26.2724 26.9849 26.3326 27.2099 26.463 27.354C26.5753 27.478 26.8155 27.5796 26.9969 27.5796C27.1782 27.5796 27.3595 27.5263 27.3998 27.4612C27.44 27.3961 27.6532 27.3429 27.8734 27.3429C28.1532 27.3429 28.3296 27.4222 28.4582 27.606C28.5595 27.7506 28.6425 28.0353 28.6425 28.2387C28.6425 28.4464 28.7373 28.694 28.859 28.8041C28.9781 28.9118 29.1945 29 29.3401 29C29.4858 29 29.7057 28.9461 29.8288 28.8802C29.9519 28.8143 30.0859 28.5831 30.1265 28.3664C30.1672 28.1496 30.1408 27.751 30.0679 27.4803C29.9908 27.1941 29.7359 26.7785 29.4581 26.4865C29.0717 26.0802 28.9955 25.9279 29.0578 25.6871C29.1003 25.5237 29.162 25.2004 29.1949 24.9689C29.2336 24.697 29.1988 24.5031 29.0967 24.4212C29.0095 24.3514 28.8319 24.2653 28.7017 24.2298C28.5715 24.1943 28.3461 24.2221 28.2009 24.2916ZM6.19708 32.7345C5.98404 32.9475 5.91503 33.1153 5.96238 33.3041C5.9993 33.4513 6.16252 33.8725 6.32502 34.2399C6.48753 34.6073 6.74803 34.9916 6.90415 35.0938C7.12098 35.2359 7.2617 35.2517 7.50114 35.1607C7.67347 35.0951 7.87184 34.9155 7.94202 34.7616C8.04665 34.5319 8.0031 34.3246 7.69927 33.6052C7.4957 33.1231 7.24099 32.662 7.13341 32.5806C7.02582 32.4993 6.83905 32.4327 6.71833 32.4327C6.59772 32.4327 6.36302 32.5685 6.19708 32.7345ZM7.94972 35.9541C7.81609 36.068 7.69726 36.2411 7.6859 36.3388C7.67454 36.4364 7.67146 36.6057 7.67927 36.7151C7.68696 36.8243 8.08583 37.4412 8.56553 38.0859C9.04535 38.7306 9.98263 39.813 10.6485 40.4913C11.3143 41.1696 12.0173 41.9526 12.2107 42.2313C12.4042 42.5101 12.6994 43.0427 12.8668 43.415C13.0341 43.7873 13.2518 44.1851 13.3503 44.299C13.4488 44.4128 13.6772 44.5061 13.8578 44.5061C14.0383 44.5061 14.2697 44.4224 14.372 44.3202C14.4743 44.2178 14.558 43.9826 14.558 43.7972C14.558 43.612 14.452 43.2132 14.3224 42.911C14.193 42.6088 13.8562 42.0051 13.5743 41.5695C13.2924 41.134 12.4924 40.1993 11.7965 39.4924C11.1005 38.7857 10.2172 37.7736 9.83361 37.2435C9.4499 36.7134 9.0263 36.1598 8.89232 36.0133C8.75822 35.8667 8.546 35.7469 8.42078 35.7469C8.29544 35.7469 8.08346 35.8402 7.94972 35.9541ZM31.128 48.4714V49.4776H24.5H17.872V48.4714V47.4653H24.5H31.128V48.4714ZM31.128 51.9633V53.0286H24.5H17.872V51.9633V50.898H24.5H31.128V51.9633ZM31.128 55.5143V56.5796H24.5H17.872V55.5143V54.449H24.5H31.128V55.5143Z" fill="#2C3E50"/>
</svg>
