<svg width="50" height="49" viewBox="0 0 50 49" fill="none" xmlns="http://www.w3.org/2000/svg">
<path fill-rule="evenodd" clip-rule="evenodd" d="M27.0883 0.169296C26.591 0.395956 26.2146 0.875155 26.0821 1.44996C26.0199 1.72017 25.9805 3.83863 25.9789 6.99L25.9766 12.0925H24.7559H23.5352V11.3733C23.5352 10.4868 23.328 10.1394 22.7994 10.1394C22.2451 10.1394 22.0703 10.4252 22.0703 11.3315V12.0961L19.7998 12.0699L17.5293 12.0437L17.4805 10.5789C17.4199 8.76275 17.3999 8.72759 15.9354 7.86138C12.3914 5.76558 12.0726 5.61705 11.4234 5.75855C11.0582 5.83824 6.94865 8.16636 6.5548 8.51675C6.13752 8.88795 6.05471 9.25172 6.05471 10.7131V12.0744L5.5301 12.2394C4.95197 12.4211 4.24865 12.9406 3.90099 13.4422C3.40275 14.1614 3.32697 14.6153 3.32355 16.9021L3.32033 19.0261H2.58146C1.33225 19.0261 1.46486 19.8533 1.46486 12.0598C1.46486 6.92906 1.49318 5.26734 1.58205 5.17847C1.75207 5.00845 21.7831 5.00845 21.9531 5.17847C22.0262 5.25152 22.0703 5.61275 22.0703 6.13658C22.0703 6.84791 22.101 7.0105 22.2694 7.19127C22.5627 7.50611 23.0711 7.48013 23.3423 7.13648C23.5356 6.89156 23.5512 6.77681 23.5193 5.83267C23.4874 4.89205 23.4597 4.76197 23.2153 4.40943C23.0675 4.19605 22.7764 3.92584 22.5684 3.80894L22.1902 3.59644H11.749H1.30783L0.8633 3.87838C0.567792 4.06568 0.348554 4.30523 0.209394 4.59273C0.00128867 5.02261 1.91273e-05 5.0691 1.91273e-05 11.98C1.91273e-05 19.495 -0.011309 19.3224 0.517402 19.8885C0.90832 20.3073 1.2673 20.4235 2.3175 20.471L3.31652 20.5164L3.34289 29.9031L3.36916 39.2898L3.62805 39.842C3.93371 40.4939 4.51945 41.0938 5.15695 41.4078L5.61525 41.6335L11.9873 41.66L18.3594 41.6865V42.7542V43.822L15.6801 43.8508L13.0008 43.8796L12.7 44.1679C12.2911 44.5599 12.1768 45.0601 12.228 46.2318C12.2745 47.2914 12.3643 47.5206 12.8609 47.8481C13.1235 48.0212 13.6087 48.0288 24.5455 48.0293C34.934 48.0299 35.9804 48.0157 36.2266 47.8703C36.7333 47.5709 36.8164 47.294 36.8164 45.9041C36.8164 44.7684 36.7954 44.6118 36.6125 44.3791C36.199 43.8535 36.0622 43.8308 33.3057 43.8308H30.7617V42.7586V41.6865L37.1338 41.66L43.5059 41.6335L43.9814 41.3907C44.623 41.063 45.1924 40.4761 45.4986 39.8269L45.752 39.2898L45.7814 27.2781C45.8025 18.6462 45.7798 15.1015 45.7005 14.6804C45.5111 13.6749 44.9305 12.8993 43.9941 12.4011L43.5059 12.1414L35.4981 12.0925L27.4902 12.0437L27.4646 8.65015L27.4389 5.2566H37.987H48.5352V10.5266C48.5352 16.578 48.643 15.9988 47.5162 15.9988C46.7566 15.9988 46.4844 16.188 46.4844 16.7161C46.4844 17.2759 46.7469 17.4156 47.7892 17.4102C48.7392 17.4053 49.0769 17.2959 49.4826 16.8612C50.0125 16.2938 50 16.4906 50 8.6984V1.48941L49.7803 1.05933C49.6595 0.822811 49.3917 0.494882 49.1853 0.330624L48.8101 0.0319912L38.1501 0.009042C27.9056 -0.0130283 27.4746 -0.00677833 27.0883 0.169296ZM48.418 1.56519C48.4946 1.64185 48.5352 2.04693 48.5352 2.73707V3.79176H37.9797H27.4241L27.4572 2.71383C27.4825 1.88834 27.5245 1.61422 27.6367 1.54342C27.8701 1.39615 48.2703 1.41754 48.418 1.56519ZM30.1982 6.88443C29.9656 6.97799 29.7783 7.47203 29.877 7.7315C30.0767 8.2567 30.2181 8.28394 32.7414 8.28394C34.5926 8.28394 35.1248 8.25474 35.3445 8.14107C35.8107 7.90006 35.8785 7.43492 35.5025 7.05884L35.2628 6.8191L32.7925 6.82681C31.4339 6.83101 30.2664 6.85699 30.1982 6.88443ZM37.7632 6.92759C37.3124 7.1898 37.3674 7.9523 37.853 8.17359C38.1937 8.32886 46.0853 8.32808 46.4261 8.17281C46.9042 7.95504 46.9481 7.1649 46.4955 6.92271C46.2299 6.78052 38.0079 6.78521 37.7632 6.92759ZM13.4465 8.10025C14.2956 8.59009 15.0483 9.04517 15.1192 9.11158C15.2235 9.20923 14.9208 9.42164 13.5355 10.223C12.5935 10.7678 11.7934 11.2136 11.7573 11.2136C11.643 11.2136 8.3006 9.24214 8.30412 9.17671C8.30949 9.07632 11.5553 7.22261 11.7375 7.21588C11.8284 7.21246 12.5975 7.6105 13.4465 8.10025ZM30.1493 9.28492C29.7217 9.60826 29.7878 10.3289 30.2632 10.5257C30.4482 10.6024 31.294 10.6284 32.9512 10.6083C35.3582 10.579 35.3699 10.5778 35.5557 10.3483C35.8094 10.0347 35.79 9.69 35.5025 9.40259L35.2628 9.16285H32.7868C30.9571 9.16285 30.2687 9.19468 30.1493 9.28492ZM37.7632 9.27134C37.3124 9.53355 37.3674 10.2961 37.853 10.5173C38.1937 10.6726 46.0853 10.6718 46.4261 10.5166C46.7685 10.3606 46.9118 9.90796 46.7301 9.5565C46.6526 9.4067 46.5182 9.25689 46.4312 9.22349C46.1478 9.1148 37.9546 9.16002 37.7632 9.27134ZM9.3631 11.5487L11.0352 12.5185V14.5516C11.0352 15.6698 11.0133 16.5847 10.9866 16.5847C10.96 16.5847 10.169 16.1391 9.22883 15.5946L7.51955 14.6044V12.5591C7.51955 11.4247 7.55773 10.5283 7.60529 10.5463C7.65256 10.5642 8.44357 11.0153 9.3631 11.5487ZM16.0156 12.5684V14.6068L14.3405 15.5713C13.4193 16.1018 12.6282 16.5505 12.5827 16.5684C12.5372 16.5864 12.5 15.6806 12.5 14.5556V12.5103L14.1846 11.5263C15.1111 10.9851 15.9022 10.5395 15.9424 10.5362C15.9826 10.5328 16.0156 11.4473 16.0156 12.5684ZM22.0703 16.1383C22.0703 18.3543 22.0486 18.7409 21.9169 18.8727C21.7797 19.0098 20.8614 19.0261 13.2743 19.0261H4.78517L4.78576 17.0974C4.78605 15.9917 4.83224 15.003 4.89406 14.7803C5.01076 14.3601 5.63898 13.655 5.8967 13.655C6.02619 13.655 6.05471 13.7706 6.05471 14.2947C6.05471 14.9758 6.18488 15.3312 6.55812 15.6688C6.94347 16.0174 11.0358 18.3417 11.4132 18.4263C11.9883 18.5553 12.4376 18.3673 14.733 17.0377C17.328 15.5344 17.4153 15.4478 17.4664 14.3218L17.5012 13.5574H19.7858H22.0703V16.1383ZM25.9924 14.8061C26.0276 15.9392 26.055 16.0953 26.2873 16.4918C26.4447 16.7603 26.7069 17.0223 26.968 17.1717L27.3926 17.4148H34.9263C42.1977 17.4148 42.4671 17.4084 42.6655 17.2288C42.9338 16.986 42.9391 16.4574 42.6758 16.1941C42.4839 16.0022 42.3503 15.9988 35.113 15.9988H27.7454L27.5935 15.7817C27.4798 15.6195 27.4414 15.3114 27.4414 14.561V13.5574H35.1987C40.4564 13.5574 43.0446 13.591 43.231 13.6616C43.6219 13.8096 43.9428 14.1308 44.1514 14.5828C44.3231 14.9548 44.3317 15.4745 44.3338 25.4958L44.3359 36.0183H31.8544C19.4282 36.0183 19.3718 36.0192 19.1591 36.2174C18.8492 36.5061 18.8702 37.0193 19.2027 37.2807C19.4599 37.4832 19.4626 37.4832 31.898 37.4832H44.3359V38.121C44.3359 38.8094 44.1618 39.3452 43.8186 39.7127C43.3166 40.2503 44.5697 40.2175 24.5543 40.2175C6.05314 40.2175 6.03205 40.2173 5.6757 40.017C5.06291 39.6726 4.83928 39.2332 4.79953 38.2961L4.76515 37.4832H9.93781C15.0229 37.4832 15.1148 37.4797 15.3677 37.2807C15.7001 37.0193 15.7211 36.5061 15.4112 36.2174C15.2018 36.0222 15.0957 36.0183 9.99133 36.0183H4.78517V28.2546V20.491H13.238C19.272 20.491 21.8182 20.4589 22.1358 20.379C22.7042 20.2358 23.2816 19.696 23.4262 19.1726C23.4925 18.9327 23.5343 17.7743 23.5346 16.1697L23.5352 13.5574H24.7444H25.9535L25.9924 14.8061ZM23.8281 20.491C23.5814 20.7377 23.5775 21.1822 23.8194 21.4811L24.006 21.7117L27.4571 21.7417C29.3552 21.7581 31.0512 21.7451 31.226 21.7127C31.6025 21.6429 31.9336 21.3202 31.9336 21.0228C31.9336 20.9059 31.8425 20.6945 31.7312 20.553L31.5288 20.2957H27.7761C24.1536 20.2957 24.0167 20.3024 23.8281 20.491ZM33.0078 20.491C32.7447 20.7541 32.7498 21.2829 33.0179 21.5256C33.2078 21.6976 33.4304 21.714 35.972 21.7421C37.4838 21.7588 38.8637 21.7459 39.0385 21.7132C39.6933 21.5909 39.9607 20.9218 39.5201 20.508C39.298 20.2994 39.241 20.2957 36.2486 20.2957C33.3333 20.2957 33.1947 20.3041 33.0078 20.491ZM9.38683 22.6111C9.20539 22.7004 8.97482 22.9083 8.87453 23.0727C8.70295 23.3542 8.69211 23.6589 8.69181 28.2396C8.69142 32.5708 8.709 33.1372 8.85119 33.3777C9.20715 33.9803 9.08859 33.9675 14.3067 33.9675C19.5247 33.9675 19.4062 33.9803 19.7621 33.3777C19.9043 33.1372 19.9219 32.5708 19.9215 28.2396C19.9212 23.6493 19.9107 23.3546 19.7377 23.071C19.3553 22.4438 19.3558 22.4439 14.2919 22.4463C10.2245 22.4483 9.68019 22.4666 9.38683 22.6111ZM24.1464 23.2929C23.663 23.3888 23.466 24.1328 23.8281 24.4949C24.0201 24.6869 24.1536 24.6902 31.5918 24.6902C39.03 24.6902 39.1635 24.6869 39.3555 24.4949C39.6187 24.2317 39.6135 23.703 39.3452 23.4602C39.1473 23.2809 38.8706 23.2737 31.7525 23.2619C27.6895 23.2551 24.2667 23.2691 24.1464 23.2929ZM18.457 28.2058V32.5027H14.3067H10.1563V28.2058V23.9089H14.3067H18.457V28.2058ZM24.1211 26.3219C23.6007 26.5133 23.4633 27.1335 23.8588 27.5052C24.0782 27.7114 24.155 27.7175 26.4885 27.7175H28.8921L29.0944 27.4602C29.4236 27.0417 29.3478 26.6275 28.8992 26.3956C28.6796 26.282 28.1771 26.2542 26.4453 26.2604C25.2476 26.2646 24.2017 26.2923 24.1211 26.3219ZM30.4995 26.3485C30.0472 26.5362 29.9411 27.1641 30.3041 27.5052C30.5235 27.7113 30.6006 27.7175 32.9238 27.7175C35.2996 27.7175 35.3191 27.7159 35.5299 27.4916C35.7919 27.2126 35.802 26.8365 35.5557 26.5321C35.37 26.3026 35.3584 26.3014 33.041 26.2807C31.7606 26.2693 30.6169 26.2999 30.4995 26.3485ZM37.0425 26.3465C36.5898 26.5384 36.4842 27.1642 36.8471 27.5052C37.0501 27.6958 37.1797 27.7175 38.1166 27.7175C39.3127 27.7175 39.5508 27.5984 39.5508 27.0002C39.5508 26.4432 39.292 26.3051 38.198 26.2789C37.6798 26.2664 37.1599 26.2968 37.0425 26.3465ZM23.8902 29.4825C23.7035 29.6292 23.6328 29.7749 23.6328 30.0124C23.6328 30.25 23.7035 30.3957 23.8902 30.5424C24.1453 30.7432 24.2079 30.7449 31.6368 30.7449H39.1261L39.3385 30.5189C39.6389 30.1991 39.619 29.7384 39.2935 29.4825C39.0383 29.2817 38.9752 29.28 31.5918 29.28C24.2084 29.28 24.1453 29.2817 23.8902 29.4825ZM23.8902 32.4122C23.5538 32.6767 23.5394 33.1621 23.8588 33.4623L24.0849 33.6746H31.6041C39.0362 33.6746 39.1258 33.6722 39.337 33.4754C39.6469 33.1868 39.6259 32.6736 39.2935 32.4122C39.0383 32.2114 38.9752 32.2097 31.5918 32.2097C24.2084 32.2097 24.1453 32.2114 23.8902 32.4122ZM22.7039 38.2657C22.4601 38.5351 22.4773 39.0077 22.7403 39.2708C22.9436 39.4741 23.0374 39.4851 24.5606 39.4851C26.0837 39.4851 26.1776 39.4741 26.3808 39.2708C26.6439 39.0077 26.661 38.5351 26.4172 38.2657C26.2521 38.0832 26.1189 38.0691 24.5606 38.0691C23.0023 38.0691 22.8691 38.0832 22.7039 38.2657ZM29.2758 42.781L29.3035 43.8308H24.5639H19.8242V42.7556V41.6805L24.5361 41.7058L29.2481 41.7312L29.2758 42.781ZM35.3516 45.9304V46.5652H24.5117H13.6719V45.9955C13.6719 45.6822 13.7012 45.3965 13.737 45.3608C13.7728 45.3249 18.6507 45.2956 24.5769 45.2956H35.3516V45.9304Z" fill="#2C3E50"/>
</svg>
