<svg width="256" height="238" viewBox="0 0 256 238" fill="none" xmlns="http://www.w3.org/2000/svg">
<path d="M210.81 11.3023V163.573C210.81 171.437 207.644 178.978 202.009 184.538C196.374 190.099 188.731 193.223 180.761 193.223C172.792 193.223 165.149 190.099 159.514 184.538C153.879 178.978 150.713 171.437 150.713 163.573V26.3204L105.366 37.6227V163.573C105.366 171.437 102.2 178.978 96.5647 184.538C90.9295 190.099 83.2866 193.223 75.3172 193.223C67.3479 193.223 59.705 190.099 54.0698 184.538C48.4346 178.978 45.2688 171.437 45.2688 163.573V52.7182L8.28858e-05 63.943V163.573C-0.0219309 178.218 4.34151 192.542 12.5425 204.748C20.7435 216.954 32.4164 226.497 46.0955 232.179C59.7746 237.86 74.8501 239.428 89.429 236.684C104.008 233.94 117.44 227.007 128.039 216.756C138.637 226.976 152.056 233.885 166.614 236.616C181.172 239.347 196.224 237.781 209.884 232.111C223.544 226.442 235.205 216.923 243.408 204.745C251.611 192.568 255.991 178.273 256 163.651V0L210.81 11.3023Z" fill="#B70825"/>
</svg>
