<svg width="35" height="45" viewBox="0 0 35 45" fill="none" xmlns="http://www.w3.org/2000/svg">
<path fill-rule="evenodd" clip-rule="evenodd" d="M16.358 0.058656C15.2187 0.344916 14.1979 1.30345 13.8122 2.44946C13.7648 2.59026 13.5813 2.60327 11.6439 2.60327C8.91852 2.60327 8.83301 2.63913 8.83301 3.78153V4.35607L4.66014 4.38059L0.487266 4.40502L0.243633 4.64874L0 4.89238V24.673V44.4536L0.287051 44.7101L0.574101 44.9666H17.1826H33.7911L34.0782 44.7101L34.3652 44.4536V24.673V4.89238L34.1216 4.64874L33.878 4.40502L29.7051 4.38059L25.5322 4.35607V3.78153C25.5322 2.63913 25.4467 2.60327 22.7213 2.60327C20.7839 2.60327 20.6004 2.59026 20.553 2.44946C20.239 1.5165 19.6055 0.790785 18.7257 0.35599C18.1907 0.0915271 17.9712 0.0339588 17.3922 0.00618533C17.0111 -0.0120959 16.5457 0.0115467 16.358 0.058656ZM18.0294 1.95999C18.4749 2.19018 18.8535 2.7344 18.9099 3.22588C19.0374 4.3355 19.1003 4.36108 21.7046 4.36108H23.7744V6.11889V7.8767H17.1826H10.5908V6.11889V4.36108H12.6521C14.063 4.36108 14.7861 4.32794 14.9439 4.25605C15.2246 4.12817 15.4248 3.76448 15.4248 3.38242C15.4248 2.75892 15.9513 2.06828 16.6113 1.8257C16.9792 1.69052 17.6265 1.75187 18.0294 1.95999ZM3.47168 23.3483C3.47168 38.04 3.49005 40.6217 3.59657 40.8766C3.85436 41.4935 2.84713 41.4509 17.1826 41.4509C31.5181 41.4509 30.5109 41.4935 30.7687 40.8766C30.8752 40.6217 30.8936 38.04 30.8936 23.3483V6.11889H31.7725H32.6514V24.6638V43.2087H17.1826H1.71387V24.6638V6.11889H2.59277H3.47168V23.3483ZM8.83301 7.68677L8.87695 9.2108L9.12357 9.42261L9.3702 9.63452H17.1826H24.995L25.2417 9.42261L25.4883 9.2108L25.5322 7.68677L25.5762 6.16284H27.334H29.0918V22.906V39.6492H17.1826H5.27344L5.25085 22.9939C5.23846 13.8335 5.24742 6.28834 5.2708 6.22691C5.30367 6.1406 5.70867 6.12056 7.0512 6.13902L8.78906 6.16284L8.83301 7.68677ZM11.2812 14.7912L9.71921 16.3445L9.01336 15.6701C8.36921 15.0547 8.27622 14.9958 7.9483 14.9958C7.4373 14.9958 7.0752 15.3632 7.0752 15.8815C7.0752 16.237 7.11835 16.2972 8.06396 17.2581C8.60783 17.8106 9.16629 18.3222 9.30507 18.3949C9.82187 18.6655 9.9726 18.5601 12.062 16.468C14.1637 14.3638 14.2586 14.2265 13.9823 13.6923C13.8078 13.3548 13.5997 13.238 13.173 13.238C12.8631 13.238 12.7484 13.3323 11.2812 14.7912ZM16.1212 13.4949C15.7705 13.8457 15.7702 14.2726 16.1206 14.6648L16.3771 14.9519L21.3282 14.9777C24.0513 14.992 26.4123 14.9795 26.5748 14.95C27.2756 14.8227 27.5454 13.9976 27.0539 13.4846L26.8177 13.238H21.5979H16.3781L16.1212 13.4949ZM16.1713 16.9516C16.0182 17.0832 15.9251 17.2702 15.8929 17.5104C15.8508 17.8239 15.8795 17.9105 16.1108 18.1694L16.3771 18.4675L21.4587 18.4916C25.1673 18.5092 26.6069 18.4881 26.7869 18.4136C27.3503 18.1802 27.4776 17.4551 27.0331 17.0106L26.7762 16.7537H21.5888H16.4014L16.1713 16.9516ZM12.7441 22.1941C12.5991 22.2856 11.8484 22.9971 11.0757 23.7753L9.67096 25.1903L8.9862 24.5096C8.33291 23.8601 8.28316 23.8289 7.90049 23.8289C7.37561 23.8289 7.0752 24.1412 7.0752 24.6869C7.0752 25.0373 7.12011 25.0968 8.19949 26.1762C9.20988 27.1865 9.3549 27.3005 9.63018 27.3005C9.79866 27.3005 10.0343 27.2358 10.1537 27.1567C10.4728 26.9455 13.5541 23.8871 13.8519 23.4861C14.1971 23.0211 14.185 22.7033 13.8076 22.3259C13.4615 21.9798 13.1458 21.9407 12.7441 22.1941ZM16.3134 22.1486C15.7243 22.4782 15.7437 23.4058 16.3452 23.6799C16.5154 23.7575 17.9089 23.7849 21.6759 23.7849H26.7762L27.0331 23.528C27.3703 23.1909 27.3892 22.6795 27.078 22.3177L26.8659 22.071L21.6947 22.0511C17.5118 22.0349 16.4833 22.0535 16.3134 22.1486ZM16.1631 25.8415C15.9736 26.031 15.8643 26.2256 15.8643 26.3733C15.8643 26.6736 16.0828 27.0944 16.2989 27.21C16.4093 27.2692 18.2551 27.3005 21.6221 27.3005H26.7762L27.0331 27.0436C27.3074 26.7693 27.3787 26.3122 27.1995 25.9773C26.9677 25.544 26.9501 25.5427 21.5288 25.5427H16.4619L16.1631 25.8415ZM12.9639 30.875C12.8914 30.9017 12.1303 31.6204 11.2726 32.4723L9.71323 34.0211L9.07269 33.3848C8.23192 32.5496 7.77595 32.4246 7.30169 32.8988C7.12494 33.0756 7.0752 33.2128 7.0752 33.5235C7.0752 33.9157 7.0911 33.9374 8.15186 34.9936C9.29936 36.1361 9.52304 36.2623 10.0195 36.0473C10.3986 35.8831 13.9919 32.2352 14.0648 31.9405C14.1434 31.6224 14.0115 31.2571 13.7493 31.0672C13.5038 30.8893 13.1561 30.8041 12.9639 30.875ZM16.5045 30.8778C16.3973 30.8985 16.2095 31.0346 16.087 31.1802C15.7736 31.5527 15.7865 31.9824 16.1212 32.3171L16.3781 32.574H21.5979H26.8177L27.0539 32.3274C27.4844 31.8781 27.3163 31.1102 26.7438 30.9106C26.4821 30.8194 16.9639 30.7889 16.5045 30.8778ZM16.1212 34.6766C15.7705 35.0274 15.7703 35.4542 16.1206 35.8465L16.3771 36.1335L21.2403 36.1603C23.915 36.175 26.2681 36.1632 26.4693 36.1341C27.2469 36.0216 27.5715 35.2065 27.0539 34.6662L26.8177 34.4197H21.5979H16.3781L16.1212 34.6766Z" fill="#2C3E50"/>
</svg>
