<svg width="21" height="21" viewBox="0 0 21 21" fill="none" xmlns="http://www.w3.org/2000/svg">
<path d="M20.0001 19.0134H12.2803C11.7895 19.0134 11.3712 18.6572 11.293 18.1727L9.11578 4.67981C9.01767 4.07183 9.48716 3.52051 10.103 3.52051H20.0001C20.5523 3.52051 21.0001 3.96822 21.0001 4.52051V18.0134C21.0001 18.5656 20.5523 19.0134 20.0001 19.0134Z" fill="white"/>
<path d="M12.7199 18.4702L14.0784 15.8868C14.2103 15.636 14.2296 15.3411 14.1315 15.0753L11.2038 7.13739C10.7991 6.04011 9.1624 6.41066 9.26979 7.57526L9.9901 15.3871C9.99658 15.4574 10.0105 15.5268 10.0316 15.5942L10.8806 18.3038C11.1466 19.1529 12.3058 19.2578 12.7199 18.4702Z" fill="#2C3E50"/>
<path d="M15.708 13H15.06L13.122 10.828V13H12.582V8.716H13.122V10.792L15.012 8.716H15.624L13.764 10.798L15.708 13ZM17.749 9.724C18.145 9.724 18.463 9.862 18.703 10.138C18.947 10.414 19.069 10.83 19.069 11.386C19.069 11.934 18.947 12.35 18.703 12.634C18.463 12.918 18.143 13.06 17.743 13.06C17.495 13.06 17.289 13.014 17.125 12.922C16.965 12.826 16.839 12.716 16.747 12.592H16.711C16.719 12.66 16.727 12.746 16.735 12.85C16.743 12.954 16.747 13.044 16.747 13.12V14.44H16.219V9.784H16.651L16.723 10.222H16.747C16.843 10.082 16.969 9.964 17.125 9.868C17.281 9.772 17.489 9.724 17.749 9.724ZM17.653 10.168C17.325 10.168 17.093 10.26 16.957 10.444C16.825 10.628 16.755 10.908 16.747 11.284V11.386C16.747 11.782 16.811 12.088 16.939 12.304C17.071 12.516 17.313 12.622 17.665 12.622C17.861 12.622 18.021 12.568 18.145 12.46C18.273 12.352 18.367 12.206 18.427 12.022C18.491 11.834 18.523 11.62 18.523 11.38C18.523 11.012 18.451 10.718 18.307 10.498C18.167 10.278 17.949 10.168 17.653 10.168Z" fill="#2C3E50"/>
<path d="M0.999999 0H7.87435C8.29318 0 8.66763 0.261003 8.81257 0.653956L14.2115 15.2918C14.2474 15.3893 14.1753 15.4928 14.0713 15.4928H9.64279H1C0.447715 15.4928 0 15.0451 0 14.4928V1C0 0.447715 0.447714 0 0.999999 0Z" fill="#1A5CFF"/>
<path d="M3.716 5.716C4.276 5.716 4.684 5.826 4.94 6.046C5.196 6.266 5.324 6.576 5.324 6.976C5.324 7.212 5.27 7.434 5.162 7.642C5.058 7.846 4.88 8.012 4.628 8.14C4.38 8.268 4.042 8.332 3.614 8.332H3.122V10H2.582V5.716H3.716ZM3.668 6.178H3.122V7.87H3.554C3.962 7.87 4.266 7.804 4.466 7.672C4.666 7.54 4.766 7.316 4.766 7C4.766 6.724 4.678 6.518 4.502 6.382C4.326 6.246 4.048 6.178 3.668 6.178ZM5.63881 6.784H6.20281L6.89881 8.614C6.95881 8.774 7.01281 8.928 7.06081 9.076C7.10881 9.22 7.14481 9.358 7.16881 9.49H7.19281C7.21681 9.39 7.25481 9.26 7.30681 9.1C7.35881 8.936 7.41281 8.772 7.46881 8.608L8.12281 6.784H8.69281L7.30681 10.444C7.19481 10.748 7.04881 10.99 6.86881 11.17C6.69281 11.35 6.44881 11.44 6.13681 11.44C6.04081 11.44 5.95681 11.434 5.88481 11.422C5.81281 11.414 5.75081 11.404 5.69881 11.392V10.972C5.74281 10.98 5.79481 10.988 5.85481 10.996C5.91881 11.004 5.98481 11.008 6.05281 11.008C6.23681 11.008 6.38481 10.956 6.49681 10.852C6.61281 10.748 6.70281 10.61 6.76681 10.438L6.93481 10.012L5.63881 6.784Z" fill="white"/>
</svg>
