<svg width="52" height="52" viewBox="0 0 52 52" fill="none" xmlns="http://www.w3.org/2000/svg">
<path fill-rule="evenodd" clip-rule="evenodd" d="M43.1858 0.165857C42.8906 0.271117 42.4017 0.527561 42.0996 0.735745C41.7973 0.943929 41.4397 1.259 41.305 1.43589C41.1701 1.61278 40.9156 2.04337 40.7394 2.39258C40.4997 2.86757 40.3653 3.02759 40.2062 3.02759C40.0891 3.02759 39.7203 3.17319 39.3865 3.35109C39.0529 3.529 38.6294 3.86053 38.4456 4.08771C38.2616 4.3149 38.0422 4.63799 37.9579 4.80564C37.8735 4.97328 37.7508 5.37095 37.6852 5.68938C37.5988 6.10869 37.5951 6.4262 37.6716 6.84053C37.7298 7.15519 37.9024 7.64258 38.0554 7.92361C38.2082 8.20465 38.5114 8.58708 38.729 8.77342C38.9467 8.95976 39.3366 9.21773 39.5956 9.34656C40.0663 9.58085 40.0677 9.58095 44.6367 9.58095H49.207L49.839 9.28895C50.2427 9.10241 50.656 8.80105 50.9834 8.45489C51.2653 8.15669 51.5958 7.69379 51.7179 7.42607C51.8974 7.03215 51.9407 6.74503 51.9445 5.92174C51.9489 4.97196 51.927 4.85888 51.6154 4.22518C51.4094 3.80627 51.1046 3.39042 50.8194 3.13925C50.5652 2.91542 50.1554 2.63459 49.9089 2.51521C49.6623 2.39583 49.1589 2.24637 48.79 2.18317C48.1676 2.07649 48.0986 2.03778 47.8276 1.64377C47.667 1.41028 47.3558 1.07672 47.1359 0.902576C46.9161 0.72843 46.4695 0.463044 46.1435 0.312875C45.6694 0.0946332 45.3679 0.0334685 44.6367 0.00725509C43.9358 -0.0178407 43.5974 0.0191426 43.1858 0.165857ZM45.6388 2.15066C45.8776 2.29067 46.1888 2.57953 46.3306 2.79259C46.4724 3.00565 46.6468 3.33037 46.7182 3.51407C46.7897 3.69786 46.9447 3.90036 47.0627 3.96406C47.1808 4.02787 47.6067 4.06983 48.0092 4.05744C48.5798 4.03986 48.8315 4.08111 49.1517 4.24449C49.3775 4.3597 49.6746 4.62458 49.8118 4.83307C49.9491 5.04146 50.0923 5.40702 50.1298 5.64538C50.1778 5.94826 50.1465 6.21446 50.0261 6.52963C49.9315 6.77764 49.6983 7.1174 49.5079 7.28464C49.3175 7.45177 48.9892 7.63659 48.7781 7.69521C48.5413 7.76105 46.9374 7.80118 44.5859 7.80007C41.0492 7.79854 40.7467 7.78452 40.3478 7.60336C40.0998 7.49079 39.8317 7.26625 39.7134 7.07219C39.5906 6.87061 39.5084 6.55787 39.5082 6.29086C39.5079 6.01146 39.5895 5.71346 39.7272 5.49054C39.8572 5.28012 40.1162 5.06035 40.363 4.95113C40.592 4.84983 40.9822 4.76967 41.2301 4.77312C41.6111 4.77841 41.7248 4.73004 41.9654 4.4607C42.1276 4.27903 42.2509 4.02259 42.2522 3.86419C42.2535 3.71138 42.3423 3.40352 42.4498 3.18C42.5572 2.95647 42.7055 2.705 42.7792 2.62118C42.8531 2.53736 43.0125 2.38445 43.1336 2.28132C43.2547 2.1782 43.5282 2.02894 43.7413 1.94949C43.976 1.86211 44.3412 1.82309 44.6669 1.85073C44.9884 1.87796 45.3794 1.99866 45.6388 2.15066ZM5.61498 10.8912C5.37956 10.9678 4.98956 11.1463 4.74825 11.2879C4.50684 11.4293 4.09073 11.779 3.82342 12.0649C3.55611 12.3508 3.22298 12.8347 3.08313 13.1402C2.89108 13.5598 2.7624 13.7117 2.55704 13.7611C2.40754 13.7971 2.07949 13.9295 1.82812 14.0555C1.57676 14.1814 1.19905 14.4521 0.988711 14.6569C0.778375 14.8617 0.481609 15.2665 0.329062 15.5565C0.0834844 16.0233 0.0517969 16.1939 0.0517969 17.0487C0.0517969 17.8962 0.0845 18.0761 0.32043 18.524C0.468203 18.8045 0.811992 19.2426 1.08448 19.4976C1.35698 19.7526 1.8072 20.0489 2.08488 20.156C2.55511 20.3374 2.89727 20.3508 7.05859 20.3508H11.5273L12.2036 20.0303C12.5756 19.854 13.0711 19.5127 13.3048 19.2717C13.5385 19.0308 13.8344 18.6264 13.9624 18.373C14.0903 18.1196 14.2504 17.644 14.3182 17.3161C14.3885 16.9754 14.4113 16.5197 14.3714 16.2532C14.3329 15.9966 14.211 15.545 14.1006 15.2497C13.9852 14.9409 13.6845 14.4771 13.3937 14.1587C13.087 13.823 12.6465 13.4841 12.2758 13.2988C11.9221 13.1221 11.41 12.9642 11.0626 12.9249C10.5263 12.8641 10.4393 12.8212 10.2573 12.5266C10.1452 12.345 9.85745 12.0159 9.61807 11.7951C9.37869 11.5743 8.91059 11.2629 8.57777 11.1031C8.0666 10.8575 7.82285 10.8077 7.00781 10.7821C6.38686 10.7626 5.89042 10.8014 5.61498 10.8912ZM7.53005 12.6962C7.74637 12.761 8.09941 12.9647 8.31452 13.1489C8.52962 13.3331 8.80364 13.712 8.92359 13.9908C9.04353 14.2697 9.243 14.5688 9.3668 14.6557C9.52199 14.7644 9.82993 14.8135 10.3566 14.8137C10.8836 14.8138 11.2293 14.869 11.4694 14.9915C11.6609 15.0891 11.9501 15.3351 12.1121 15.5381C12.2815 15.7503 12.4302 16.0822 12.4619 16.3191C12.4924 16.5457 12.4865 16.8949 12.4489 17.0953C12.4113 17.2956 12.239 17.6209 12.0658 17.8181C11.8928 18.0154 11.6093 18.2545 11.4361 18.3493C11.1543 18.5038 10.6857 18.522 6.98994 18.522C2.97588 18.522 2.85076 18.5161 2.57827 18.3125C2.42389 18.1973 2.21152 17.9875 2.1063 17.8465C2.00098 17.7054 1.88988 17.404 1.85941 17.1769C1.81716 16.8616 1.85941 16.6651 2.03785 16.3474C2.19121 16.0746 2.41637 15.8611 2.69141 15.7279C2.92795 15.6134 3.31855 15.5247 3.58678 15.5247C3.92509 15.5247 4.12049 15.4667 4.26309 15.324C4.37338 15.2137 4.49221 14.9966 4.52715 14.8414C4.56209 14.6864 4.63531 14.3817 4.68975 14.1644C4.74754 13.9342 4.9657 13.5827 5.2128 13.3221C5.44598 13.0761 5.81953 12.8101 6.04297 12.731C6.26641 12.6519 6.6039 12.5851 6.79291 12.5827C6.98191 12.5803 7.31362 12.6313 7.53005 12.6962ZM13.0483 27.8565C12.8793 27.9314 12.6852 28.1157 12.6167 28.2661C12.538 28.4388 12.4922 29.0448 12.4922 29.9121V31.2849L11.9469 32.6252C11.647 33.3624 11.135 34.5599 10.8091 35.2864C10.4833 36.0128 9.90072 37.2245 9.51458 37.9789C9.12844 38.7332 8.53694 39.8306 8.20016 40.4173C7.86327 41.0041 7.16087 42.1369 6.63914 42.9349C6.11741 43.7328 5.33802 44.8512 4.9073 45.4202C4.47657 45.9893 3.72694 46.9138 3.24147 47.4747C2.756 48.0358 2.02028 48.8148 1.60672 49.2059C1.19305 49.5971 0.662289 50.0924 0.427273 50.3067C0.0627656 50.6391 0 50.7554 0 51.0988C0 51.3906 0.0685547 51.5698 0.249336 51.7506L0.49857 52H26H51.5014L51.7507 51.7506C51.9251 51.5761 52 51.3889 52 51.127C52 50.7805 51.896 50.6503 50.5956 49.3697C49.8232 48.6091 48.8481 47.5752 48.4286 47.0723C48.0091 46.5693 47.2759 45.6321 46.7993 44.9894C46.3228 44.3468 45.6365 43.3638 45.2745 42.805C44.9125 42.2462 44.2605 41.1763 43.8257 40.4274C43.3909 39.6786 42.52 38.0097 41.8902 36.7189C41.2605 35.4281 40.4669 33.677 40.1265 32.8276L39.5078 31.2833V29.8574V28.4315L39.216 28.1047C38.9882 27.8497 38.8428 27.778 38.553 27.778C38.2847 27.778 38.1054 27.8545 37.9055 28.0543C37.6454 28.3143 37.6269 28.3941 37.5943 29.3955L37.5596 30.4603H26H14.4404L14.4057 29.3955C14.3739 28.4175 14.3504 28.3105 14.1172 28.0809C13.9775 27.9435 13.749 27.8061 13.6094 27.7757C13.4697 27.7452 13.2172 27.7816 13.0483 27.8565ZM20.0657 32.5177C20.105 32.6435 20.4561 33.5007 20.8459 34.4228C21.2357 35.3448 21.8869 36.7925 22.2931 37.64C22.9116 38.9307 23.0846 39.2083 23.3588 39.3502C23.5648 39.4568 23.7853 39.4948 23.9543 39.4528C24.1019 39.4162 24.3255 39.2902 24.4512 39.1729C24.6085 39.0259 24.6797 38.8424 24.6797 38.5837C24.6797 38.3254 24.4699 37.7827 24.0088 36.8487C23.6398 36.1012 23.0745 34.8724 22.7525 34.118C22.4306 33.3636 22.1351 32.6432 22.096 32.5171L22.0249 32.2879L29.9697 32.3139L37.9144 32.3399L38.5388 33.864C38.8822 34.7022 39.4577 36.0271 39.8179 36.8083C40.178 37.5894 40.9094 39.0296 41.4431 40.0088C41.9768 40.9878 42.8223 42.4437 43.322 43.2438C43.8217 44.044 44.7846 45.4385 45.4619 46.3427C46.1392 47.2469 47.1342 48.4781 47.6731 49.0789L48.6529 50.1712H45.5614H42.47L41.6549 49.4042C41.2066 48.9823 40.3864 48.125 39.8321 47.4991C39.2778 46.8731 38.3888 45.781 37.8566 45.072C37.3243 44.363 36.56 43.2527 36.158 42.6045C35.756 41.9564 35.317 41.354 35.1827 41.2659C35.0147 41.1558 34.8287 41.1263 34.5869 41.1717C34.3858 41.2095 34.1465 41.3506 34.0278 41.5016C33.9136 41.6468 33.8204 41.908 33.8206 42.0821C33.8207 42.2991 34.0362 42.7348 34.5062 43.4683C34.8831 44.0566 35.4491 44.9051 35.764 45.3538C36.079 45.8024 36.7166 46.6471 37.1811 47.2306C37.6456 47.8141 38.4072 48.7145 38.8737 49.2313L39.7217 50.1712H32.9917H26.2616L25.0376 48.9265C24.3644 48.2419 23.3558 47.1104 22.7962 46.4119C22.2367 45.7133 21.3857 44.5703 20.9051 43.8718C20.4246 43.1733 19.5724 41.833 19.0115 40.8934C18.4505 39.9538 17.5821 38.3536 17.0818 37.3373C16.5814 36.3211 15.9644 35.0095 15.7106 34.4228C15.4568 33.836 15.1551 33.1159 15.0401 32.8225L14.8311 32.2891H17.4126H19.9941L20.0657 32.5177ZM9.59024 46.016L6.68515 50.1712H5.0113H3.33755L4.20702 49.2313C4.68518 48.7145 5.46782 47.7886 5.94618 47.1739C6.42444 46.5592 7.26984 45.3853 7.82468 44.5653C8.37962 43.7453 9.24991 42.3508 9.75884 41.4665C10.2677 40.582 11.0795 39.0549 11.5627 38.0728L12.4414 36.2871L12.4684 39.0739L12.4954 41.8609L9.59024 46.016ZM17.0096 41.2301C17.4438 41.9845 18.1855 43.1929 18.6578 43.9153C19.1303 44.6377 19.8407 45.6664 20.2367 46.2013C20.6327 46.7363 21.277 47.5581 21.6685 48.0278C22.0599 48.4976 22.6525 49.1731 22.9853 49.529L23.5905 50.1762L21.8838 50.1483L20.1769 50.1204L17.2994 46.0099L14.4219 41.8996V39.0562V36.213L15.3211 38.0358C15.8157 39.0383 16.5755 40.4757 17.0096 41.2301ZM15.7576 47.0723C16.8476 48.637 17.7726 49.9743 17.8131 50.0442C17.871 50.1437 17.5121 50.1712 16.1544 50.1712H14.4219V48.8471C14.4219 47.9351 14.3771 47.4158 14.2782 47.1788C14.199 46.9895 14.0421 46.7852 13.9293 46.7248C13.8166 46.6644 13.5867 46.6151 13.4186 46.6151C13.242 46.6151 12.9925 46.7185 12.828 46.86L12.543 47.105L12.5103 48.6381L12.4776 50.1712H10.7499C9.79032 50.1712 9.03723 50.1312 9.05602 50.0812C9.07461 50.0319 10.068 48.5943 11.2636 46.8868C13.4 43.8355 13.4402 43.786 13.6065 44.0048C13.6997 44.1272 14.6677 45.5076 15.7576 47.0723Z" fill="#2C3E50"/>
</svg>
