<svg width="79" height="84" viewBox="0 0 79 84" fill="none" xmlns="http://www.w3.org/2000/svg">
<path d="M8.90185 50.6314C11.4289 51.4882 13.7688 52.3023 16.132 53.0949C20.6012 54.616 25.0703 56.1583 29.5395 57.7008C29.984 57.8508 30.4285 58.1721 30.7562 58.4934C33.5639 61.1927 36.3485 63.9348 39.1562 66.6341C39.2264 66.7198 39.32 66.7626 39.4839 66.8912C42.8064 64.2347 45.9419 61.4284 48.7028 58.1293C47.6032 57.7437 46.6438 57.3795 45.6611 57.0582C38.197 54.4874 30.7327 51.9167 23.2686 49.3459C17.5827 47.3964 11.8735 45.4256 6.18761 43.4761C5.62604 43.2833 5.55518 42.6983 5.43818 42.1413C3.96407 36.807 3.42604 33.0646 2.3731 27.5804C1.95193 24.8597 1.5313 21.4703 1.13353 18.6853C0.338558 13.1194 0.01038 7.55363 0.01038 1.03106C0.01038 0.902512 -0.0129924 0.235649 0.0104062 0C0.267791 0.0856911 1.74806 0.730855 1.93524 0.795117C7.55091 2.80886 12.1543 4.59376 17.7699 6.6075C24.0876 8.87831 30.4052 11.1491 36.6993 13.4199C38.9223 14.234 41.0516 13.9126 43.2042 13.12C51.4172 10.1423 59.6535 7.20734 67.8663 4.25099C71.3293 3.00847 74.8157 1.76595 78.2787 0.502009C78.4425 0.437736 78.6297 0.394895 78.7935 0.352043C79.7762 15.7122 77.179 30.6224 72.5461 45.3613C71.1187 44.8685 69.6914 44.3544 68.2641 43.8617C65.4095 42.8549 62.5783 41.8479 59.7237 40.8625C59.2323 40.6912 59.0684 40.4984 59.1855 39.9842C60.1682 35.8496 61.151 31.7364 61.9933 27.5804C62.4379 25.4167 62.6016 23.2102 62.8824 21.025C62.9058 20.8322 62.8824 20.618 62.8824 20.2753C61.7828 20.6823 60.7765 21.025 59.7939 21.3892C53.4528 23.7672 47.1118 26.1451 40.7941 28.5445C40.1624 28.7801 39.6008 28.823 38.9223 28.5873C31.5985 26.1023 24.2748 23.6386 16.9509 21.1536C16.6468 21.0465 16.3426 20.9822 15.8981 20.8537C16.1087 22.0319 16.2724 23.1031 16.4597 24.1742C16.9042 26.7449 17.3956 29.3157 17.8168 31.8864C17.9103 32.4434 18.1443 32.7433 18.7292 32.9361C23.3622 34.5428 27.9951 36.1923 32.628 37.8205C39.2498 40.1556 45.8951 42.5121 52.5168 44.8471C58.1793 46.8395 63.8184 48.8532 69.4809 50.8242C69.9722 50.9955 70.0658 51.1669 69.8787 51.6168C67.8663 56.5012 65.2925 61.107 61.9699 65.3488C59.4896 68.4979 56.5181 71.2615 53.3124 73.7679C49.0071 77.1527 44.5613 80.4304 40.1858 83.7509C39.7647 84.0722 39.4604 84.0936 38.9925 83.7509C33.7278 80.0019 28.6269 76.0388 24.1578 71.4971C22.0285 69.3548 20.063 67.0411 18.3315 64.6419C15.2195 60.3144 12.3415 55.837 9.36982 51.424C9.22943 51.2526 9.13583 51.017 8.90185 50.6314Z" fill="#EF0000"/>
</svg>
